<svg width="40" height="40" viewBox="0 0 40 40" fill="none" xmlns="http://www.w3.org/2000/svg">
    <mask id="mask0_12143_55081" style="mask-type:alpha" maskUnits="userSpaceOnUse" x="0" y="0" width="40" height="40">
        <path d="M30 0H10C4.47715 0 0 4.47715 0 10V30C0 35.5228 4.47715 40 10 40H30C35.5228 40 40 35.5228 40 30V10C40 4.47715 35.5228 0 30 0Z"
              fill="white"/>
    </mask>
    <g mask="url(#mask0_12143_55081)">
        <path d="M30 0H10C4.47715 0 0 4.47715 0 10V30C0 35.5228 4.47715 40 10 40H30C35.5228 40 40 35.5228 40 30V10C40 4.47715 35.5228 0 30 0Z"
              fill="url(#paint0_linear_12143_55081)"/>
        <path d="M19 18C20.134 17.4498 21.5 16.5 21.5 14.5C21.5 12.4825 19.634 11 17.933 11C17.1856 11 16.0155 11.4803 15.5 12L19 18Z"
              fill="#FFC400"/>
        <path d="M20.1917 20.2316L19.2948 21.1289C19.0633 21.3605 18.6872 21.3605 18.4557 21.1289L17.5009 20.1737C17.2694 19.9421 16.8933 19.9421 16.6618 20.1737L15.5913 21.2447C15.3599 21.4763 14.9837 21.4763 14.7523 21.2447L13.7975 20.2895C13.566 20.0579 13.1899 20.0579 12.9584 20.2895L12.0904 21.1579C11.859 21.3895 11.4828 21.3895 11.2514 21.1579L10.3834 20.3184C10.1519 20.0868 9.77577 20.0868 9.5443 20.3184L8.73418 21.1289C8.50271 21.3605 8.12658 21.3605 7.89512 21.1289L6.96926 20.2026C6.91139 20.1447 6.85353 20.1158 6.79566 20.0868L-2 34.0395C0.372514 41.1316 2.31103 41.6816 10.123 42L20.1049 39.6842H20.915C24.2423 39.5395 27.3382 38.5263 30 36.8474L20.1917 20.2316Z"
              fill="#DEEBFF"/>
        <path d="M37.3773 27.1934L34.4987 22C34.3603 22.0295 34.2496 22.059 34.1665 22.177L33.1424 23.2688C32.921 23.5049 32.5611 23.5049 32.3397 23.2688L31.4263 22.2951C31.2048 22.059 30.845 22.059 30.6236 22.2951L29.7932 23.1803C29.5718 23.4164 29.2119 23.4164 28.9905 23.1803L28.1601 22.2951C27.9387 22.059 27.5789 22.059 27.3574 22.2951L26.5824 23.1213C26.361 23.3574 26.0012 23.3574 25.7797 23.1213L24.6374 22.2951L16.4241 37.2852C16.0366 37.9638 15.7045 40.413 16.4241 40.5901C17.5036 40.8556 19.3858 40.531 20.5484 40.5901L21.2403 40.295H21.9323C28.8521 39.9999 41.031 43.9835 41.9997 35.7212C42.0394 35.3834 37.5434 27.4885 37.3773 27.1934Z"
              fill="#B3D4FF"/>
        <path opacity="0.4"
              d="M23.6082 9H10.3918C9.07325 9 8 9.89744 8 11C8 12.1026 9.07325 13 10.3918 13H23.6082C24.9267 13 26 12.1026 26 11C26 9.89744 24.9267 9 23.6082 9Z"
              fill="white"/>
        <path d="M20.0001 20.0017L19.0123 21.0533C18.7754 21.287 18.3904 21.287 18.1534 21.0533L17.1761 20.0893C16.9391 19.8556 16.5541 19.8556 16.3172 20.0893L15.2214 21.1701C14.9844 21.4038 14.5994 21.4038 14.3625 21.1701L13.3555 20.1769C13.2667 20.0893 13.1186 20.0309 13.0001 20.0017V40.8C14.8956 41.5303 27.305 38.5799 30.0001 36.8857L20.0001 20.0017Z"
              fill="#B3D4FF"/>
        <path d="M30.6019 15.9891C30.1841 15.3213 29.1256 15.3213 28.6799 15.9891L24.613 22.3069C24.6687 22.3326 24.7245 22.3583 24.7802 22.4096L25.6715 23.2315C25.8944 23.4369 26.2565 23.4369 26.4793 23.2315L27.2593 22.5124C27.4821 22.3069 27.8442 22.3069 28.0671 22.5124L28.8749 23.2571C29.0977 23.4626 29.4598 23.4626 29.6827 23.2571L30.5183 22.4867C30.7412 22.2812 31.1033 22.2812 31.3261 22.4867L32.2453 23.3342C32.4682 23.5396 32.8303 23.5396 33.0531 23.3342L34.0838 22.3839C34.2231 22.2555 34.4181 22.2042 34.613 22.2299L30.6019 15.9891Z"
              fill="white"/>
        <path d="M12.1418 10.8032L6.5 20.5661C6.6194 20.5966 6.73881 20.6271 6.82836 20.7186L7.78358 21.6949C8.02239 21.939 8.41045 21.939 8.64925 21.6949L9.48507 20.8407C9.72388 20.5966 10.1119 20.5966 10.3507 20.8407L11.2164 21.7254C11.4552 21.9695 11.8433 21.9695 12.0821 21.7254L12.9776 20.8102C13.2164 20.5661 13.6045 20.5661 13.8433 20.8102L14.8284 21.8169C15.0672 22.061 15.4552 22.061 15.694 21.8169L16.7985 20.6881C17.0373 20.444 17.4254 20.444 17.6642 20.6881L18.6493 21.6949C18.8881 21.939 19.2761 21.939 19.5149 21.6949L20.4701 20.7186L20.5 20.6881L14.6493 10.4981C13.9627 9.73541 12.709 9.85745 12.1418 10.8032Z"
              fill="white"/>
    </g>
    <defs>
        <linearGradient id="paint0_linear_12143_55081" x1="-2.04891e-07" y1="20.0001" x2="40" y2="20.0001"
                        gradientUnits="userSpaceOnUse">
            <stop stop-color="#7F28D9"/>
            <stop offset="1" stop-color="#7427CC"/>
        </linearGradient>
    </defs>
</svg>
