<svg width="34" height="34" viewBox="0 0 34 34" fill="none" xmlns="http://www.w3.org/2000/svg">
<path fill-rule="evenodd" clip-rule="evenodd" d="M16.9987 0.333332C7.79395 0.333332 0.332031 7.79525 0.332031 17C0.332031 26.2047 7.79395 33.6667 16.9987 33.6667C26.2034 33.6667 33.6654 26.2047 33.6654 17C33.6654 7.79525 26.2034 0.333332 16.9987 0.333332ZM16.9987 8.66667C17.9192 8.66667 18.6654 9.41286 18.6654 10.3333V17C18.6654 17.9205 17.9192 18.6667 16.9987 18.6667C16.0782 18.6667 15.332 17.9205 15.332 17V10.3333C15.332 9.41286 16.0782 8.66667 16.9987 8.66667ZM15.332 23.6667C15.332 22.7462 16.0782 22 16.9987 22H17.0154C17.9358 22 18.682 22.7462 18.682 23.6667C18.682 24.5871 17.9358 25.3333 17.0154 25.3333H16.9987C16.0782 25.3333 15.332 24.5871 15.332 23.6667Z" fill="#2E8DFD"/>
</svg>
