<svg width="406" height="426" viewBox="0 0 406 426" fill="none" xmlns="http://www.w3.org/2000/svg">
<path d="M344.376 141.88C394.029 165.587 419.042 229.24 398.696 284.867C373.869 352.253 273.069 401.347 164.989 380.253C95.7356 366.44 34.509 285.613 42.7223 171.187C52.2423 37.5333 127.656 21.1066 169.656 55.4533C273.256 140.573 284.642 113.32 344.376 141.88Z" fill="#E0F3FF"/>
<path d="M340.083 370.173L335.229 387.72C335.229 387.72 275.496 376.52 238.163 345.16C238.163 345.16 232.189 296.627 212.963 270.493C192.056 242.12 188.136 196.947 205.123 173.24C205.123 173.24 223.976 187.987 230.696 197.88C231.443 199 232.376 200.493 233.309 202.173C246.376 227 263.363 299.987 267.283 310.44C271.203 321.64 308.723 358.413 340.083 370.173Z" fill="url(#paint0_linear_377_2556)"/>
<path opacity="0.3" d="M340.083 370.173L335.229 387.72C335.229 387.72 275.496 376.52 238.163 345.16C238.163 345.16 232.189 296.627 212.963 270.493C192.056 242.12 188.136 196.947 205.123 173.24C205.123 173.24 223.976 187.987 230.696 197.88C231.443 199 232.376 200.493 233.309 202.173C233.309 204.227 233.309 255.187 235.363 265.08C237.416 274.787 242.829 297.933 246.376 310.067L234.056 283.747C234.056 283.747 239.843 336.2 243.016 342.547C246.189 348.893 306.296 382.68 340.083 370.173Z" fill="url(#paint1_linear_377_2556)"/>
<path opacity="0.5" d="M231.813 314.547C231.813 314.547 239.279 248.84 223.973 211.88L226.399 299.987L231.813 314.547Z" fill="url(#paint2_linear_377_2556)"/>
<path d="M133.442 148.787L131.016 149.347C131.016 149.347 137.736 198.067 178.056 211.133C178.056 211.133 191.309 191.16 190.002 175.48C188.696 159.8 173.389 145.8 173.389 145.8L133.442 148.787Z" fill="url(#paint3_linear_377_2556)"/>
<path d="M159.199 106.413C159.199 106.413 155.093 127.32 147.812 144.12C147.812 144.12 165.919 153.827 169.093 167.267C169.093 167.267 175.813 146.733 182.533 140.2L159.199 106.413Z" fill="#FE9083"/>
<path d="M221.734 51.16C221.734 51.16 229.948 38.6533 228.081 30.6266C226.214 22.6 219.121 21.48 219.121 21.48C219.121 21.48 221.734 44.6266 221.734 51.16Z" fill="url(#paint4_linear_377_2556)"/>
<path d="M159.389 108.84C159.389 108.84 157.336 145.8 175.629 150.467C175.629 150.467 179.549 142.253 182.163 140.2L159.389 108.84Z" fill="#CB4D7A"/>
<path d="M217.068 28.5733C224.908 34.1733 220.615 80.4667 221.921 84.76C223.228 88.8667 227.708 92.7867 228.268 97.2667C228.828 101.747 215.761 143.373 199.708 147.293C183.655 151.213 160.321 136.467 150.241 108.84C140.348 81.2133 148.935 47.8 156.961 37.5333C165.175 27.2667 201.575 17.3733 217.068 28.5733Z" fill="url(#paint5_linear_377_2556)"/>
<path d="M221.736 48.1733L217.069 49.48C217.069 49.48 207.176 43.6933 188.136 39.96C163.869 35.1067 157.522 64.7866 156.776 70.3866L153.789 54.52L154.162 35.8533L188.136 28.5733L217.629 36.2267L220.989 39.7733C221.176 39.96 221.549 45.1867 221.736 48.1733Z" fill="#E4688E"/>
<path d="M187.387 108.093C187.387 108.093 190.187 106.787 194.107 106.973C194.107 106.973 191.121 104.733 188.321 104.733C185.334 104.733 187.387 108.093 187.387 108.093Z" fill="url(#paint6_linear_377_2556)"/>
<path d="M217.067 49.48C215.387 40.8933 208.107 33.9866 208.107 33.9866C206.987 34.36 205.867 34.7333 204.56 34.92C199.147 36.04 192.613 35.6666 181.787 34.92C172.453 34.36 165.173 37.9066 161.44 39.0266C161.253 39.0266 161.067 39.2133 160.88 39.2133C156.587 40.1466 159.013 42.76 159.013 42.76C159.013 42.76 164.24 52.28 159.2 62.7333C156.213 69.2666 155.84 78.4133 156.027 84.5733C156.213 88.4933 156.587 91.1067 156.587 91.1067L152.107 89.0533C152.107 89.0533 145.2 80.4667 140.16 72.44C138.293 69.4533 136.613 66.4667 135.68 64.04C134 59.56 132.507 56.0133 131.947 53.0266C131.387 50.04 131.573 47.6133 133.067 45.56C136.053 41.64 154.347 36.2266 154.347 36.2266C154.347 36.2266 150.053 35.8533 148 31.1866C146.133 26.52 149.493 17.7466 149.493 17.7466C149.68 26.7066 154.72 33.4266 155.093 33.9866C155.093 33.8 154.907 33.6133 154.72 33.24C154.72 33.24 154.72 33.24 154.72 33.0533C153.973 31.3733 152.667 28.0133 152.853 26.3333C152.853 26.1466 152.853 26.1466 152.853 25.96C152.853 25.7733 152.853 25.7733 153.04 25.5866C153.04 25.5866 153.04 25.4 153.227 25.4C153.227 25.2133 153.413 25.2133 153.413 25.0266C153.6 24.84 153.6 24.6533 153.787 24.6533C154.72 23.9066 156.4 22.9733 159.387 21.6666H159.573C162.747 20.36 167.413 18.8666 174.133 16.8133C191.867 11.5866 203.627 0.38665 203.627 0.38665C203.627 0.38665 215.387 1.87998 222.853 9.71998C222.853 9.71998 222.853 9.71998 223.04 9.90665C225.28 12.3333 227.147 15.32 228.08 19.24C232.373 34.92 217.067 49.48 217.067 49.48Z" fill="url(#paint7_linear_377_2556)"/>
<path d="M212.402 39.0266C206.242 41.08 200.829 39.0267 187.016 36.4133C177.309 34.5467 164.056 37.5333 160.882 39.0266L159.016 38.6533C159.016 38.6533 166.109 32.68 178.242 21.1067C190.376 9.71999 209.229 27.2667 212.402 39.0266Z" fill="url(#paint8_linear_377_2556)"/>
<path d="M156.213 75.8C156.213 75.8 176.187 88.12 180.293 102.68C184.4 117.24 180.293 135.533 180.293 135.533C180.293 135.533 160.133 99.88 157.52 90.7333C154.907 81.7733 156.213 75.8 156.213 75.8Z" fill="url(#paint9_linear_377_2556)"/>
<path d="M188.695 110.147C188.695 110.147 198.402 124.707 207.362 124.707C213.895 124.707 215.949 115.56 215.949 115.56L204.562 117.613L188.695 110.147Z" fill="url(#paint10_linear_377_2556)"/>
<path d="M175.069 65.72C175.069 65.72 172.456 72.2533 173.576 80.6533C173.576 80.6533 188.696 89.4267 198.216 85.6933C198.216 85.6933 201.763 68.3333 199.149 50.4133C199.149 50.4133 195.603 56.0133 190.749 56.2C185.896 56.3866 176.563 63.48 175.069 65.72Z" fill="url(#paint11_linear_377_2556)"/>
<path d="M227.147 103.8C226.587 102.12 221.547 103.987 213.334 105.107C205.121 106.227 192.987 101.56 192.987 101.56C183.094 97.8266 174.694 109.587 174.694 109.587C167.974 109.587 162.001 99.1333 158.641 92.2266C156.961 88.4933 155.841 85.88 155.841 85.88C153.414 87.7466 153.787 89.8 153.787 89.8C154.534 97.4533 149.867 108.84 149.867 108.84C149.867 108.84 151.547 122.093 168.347 137.587C184.961 153.08 205.121 148.787 205.121 148.787C221.547 140.013 227.707 105.48 227.147 103.8ZM210.907 134.787C207.921 134.787 209.227 126.947 204.747 126.2C200.267 125.453 194.107 134.973 187.761 131.24C182.721 128.067 181.974 109.96 184.214 107.72C187.574 103.987 194.107 106.973 194.107 106.973C194.107 106.973 197.841 109.4 206.241 111.64C213.707 113.507 221.547 108.84 221.547 108.84C224.161 120.6 213.894 134.787 210.907 134.787Z" fill="url(#paint12_linear_377_2556)"/>
<path d="M219.309 100.253C219.309 100.253 216.323 91.1067 210.536 89.9867C204.749 89.0533 199.336 100.067 199.336 100.067L219.309 100.253Z" fill="#FFB398"/>
<path d="M219.309 100.253C219.683 99.5067 203.443 99.1333 199.336 100.067C199.336 100.067 202.696 104.36 208.483 105.48C214.269 106.413 218.563 102.12 219.309 100.253Z" fill="url(#paint13_linear_377_2556)"/>
<path d="M205.869 104.733C205.869 104.733 203.815 101 200.082 101C200.082 101 203.069 103.987 205.869 104.733Z" fill="#9F4A8B"/>
<path d="M213.336 105.107C213.336 105.107 218.376 103.24 219.309 100.253C219.309 100.253 218.003 95.96 214.643 92.04C214.643 92.04 217.816 97.64 217.816 100.067C217.816 100.067 216.136 103.8 213.336 105.107Z" fill="#CB4D7A"/>
<path d="M199.146 50.6C199.146 50.6 198.773 54.7066 195.6 58.2533C195.6 58.2533 182.906 60.3066 175.066 65.9066C175.066 65.9066 176.933 60.68 184.026 57.6933C192.24 53.96 199.146 50.6 199.146 50.6Z" fill="#38368E"/>
<path d="M217.813 57.6933C217.813 57.6933 211.093 74.68 210.906 79.72C210.906 84.5733 211.28 85.32 211.28 85.32C211.28 85.32 219.493 88.8667 221.92 84.5733C221.92 84.5733 220.986 71.1333 221.92 62.36C221.92 62.5466 221.36 54.3333 217.813 57.6933Z" fill="url(#paint14_linear_377_2556)"/>
<path d="M194.106 83.4533C194.106 83.4533 191.679 82.8933 188.133 81.96C185.519 81.2133 182.346 80.4666 179.359 79.3466C179.359 79.3466 179.359 79.3466 179.546 79.16C179.733 78.9733 179.733 78.7866 179.919 78.6C180.106 78.4133 180.106 78.4133 180.293 78.2266C180.479 78.04 180.479 78.04 180.666 77.8533C182.533 75.9866 186.453 73 193.359 73C193.359 73 197.466 77.1066 194.106 83.4533Z" fill="#FFEBED"/>
<path d="M193.173 71.6933C193.173 71.6933 191.306 67.96 190.746 67.4C190.746 67.4 181.786 70.76 179.359 79.3466H179.919C179.919 79.3466 183.466 74.12 193.173 71.6933Z" fill="url(#paint15_linear_377_2556)"/>
<path d="M219.867 82.1467C219.867 82.1467 218.747 83.08 216.133 83.2666C215.573 83.2666 215.013 83.2666 214.267 83.2666C211.467 83.08 210.16 81.4 210.16 81.4C210.16 81.4 210.16 81.2133 210.347 81.2133C210.347 81.0267 210.533 80.84 210.72 80.4666C210.907 80.0933 211.093 79.9066 211.28 79.5333C211.467 79.3466 211.467 79.16 211.653 78.7866C211.84 78.6 212.027 78.2267 212.213 78.04C212.4 77.6667 212.587 77.48 212.96 77.1067C214.453 75.0533 216.693 73 219.493 73C219.307 72.8133 220.8 77.8533 219.867 82.1467Z" fill="#FFEBED"/>
<path d="M219.306 70.9467C219.306 70.9467 217.626 67.2133 216.133 67.4C215.199 67.4 211.093 73 210.719 80.84C210.533 80.6533 212.399 74.12 219.306 70.9467Z" fill="url(#paint16_linear_377_2556)"/>
<path d="M188.133 81.96C185.519 81.2133 182.346 80.4666 179.359 79.3466C179.359 79.3466 179.359 79.3466 179.546 79.16C179.733 78.9733 179.733 78.7866 179.919 78.6C180.106 78.4133 180.106 78.4133 180.293 78.2266C180.479 78.04 180.479 78.04 180.666 77.8533C182.159 76.36 184.773 74.4933 189.066 73.9333C189.066 73.9333 189.439 78.7866 188.133 81.96Z" fill="#7F9EC9"/>
<path d="M216.321 83.2666C215.761 83.2666 215.201 83.2666 214.454 83.2666C211.654 83.08 210.348 81.4 210.348 81.4C210.348 81.4 210.348 81.2133 210.534 81.2133C210.534 81.0267 210.721 80.84 210.908 80.4666C211.094 80.0933 211.281 79.9066 211.468 79.5333C211.654 79.3467 211.654 79.16 211.841 78.7866C212.028 78.6 212.214 78.2267 212.401 78.04C212.588 77.6667 212.774 77.48 213.148 77.1067C214.081 75.8 215.388 74.68 216.881 74.12C216.508 73.9333 217.628 79.72 216.321 83.2666Z" fill="#7F9EC9"/>
<path d="M179.359 79.3467C179.359 79.3467 184.213 74.12 193.359 73L194.293 74.3067C194.293 74.3067 197.653 72.0666 196.719 71.32C195.786 70.3866 184.959 71.5067 179.359 79.3467Z" fill="#131163"/>
<path d="M210.348 81.4C210.348 81.4 212.774 74.68 219.308 72.8133L219.681 74.4933C219.681 74.4933 223.414 71.32 223.041 70.76C222.294 69.64 213.334 70.9466 210.348 81.4Z" fill="#131163"/>
<path d="M189.815 105.853C189.815 105.853 200.268 111.08 209.042 112.387C216.695 113.507 220.615 109.773 220.615 109.773C220.615 109.773 218.562 112.2 216.135 115.187C213.522 118.547 210.348 122.653 205.682 122.467C196.908 121.907 187.762 108.84 187.762 108.84L189.815 105.853Z" fill="#9F4A8B"/>
<path d="M216.88 59.1866C216.88 59.1866 209.227 75.8 209.227 79.5333C209.227 83.2666 214.64 92.2266 214.64 92.2266C214.64 92.2266 210.72 84.3866 210.907 79.9066C211.093 75.4266 216.88 61.8 216.88 61.8V59.1866Z" fill="#CB4D7A"/>
<path d="M213.336 69.4533C213.336 69.4533 216.696 56.2 220.429 54.1466C223.043 52.6533 221.923 64.04 221.923 64.04C221.923 64.04 222.109 60.4933 219.309 61.24C216.509 61.8 213.336 69.4533 213.336 69.4533Z" fill="#38368E"/>
<path opacity="0.5" d="M151.922 191.347C151.922 191.347 159.762 179.96 173.575 178.467C187.202 176.973 191.309 185.187 191.309 185.187C191.309 185.187 189.815 168.947 178.802 156.813L173.389 173.427L162.002 157.933C162.002 157.933 150.429 180.707 151.922 191.347Z" fill="url(#paint17_linear_377_2556)"/>
<path opacity="0.5" d="M217.069 49.48C215.389 40.8933 208.109 33.9867 208.109 33.9867C206.989 34.36 205.869 34.7333 204.562 34.92L195.789 19.8C208.109 24.84 213.522 38.0933 213.522 38.0933C213.522 38.0933 218.749 42.76 219.309 32.4933C219.869 22.6 213.709 14.76 213.336 14.3867C221.176 21.2933 223.789 28.76 223.789 28.76C227.336 15.88 223.789 10.6533 223.042 9.71999C225.282 12.1467 227.149 15.1333 228.082 19.0533C232.376 34.92 217.069 49.48 217.069 49.48Z" fill="url(#paint18_linear_377_2556)"/>
<path opacity="0.5" d="M173.763 25.4C173.203 25.96 163.869 35.2933 161.443 38.84V39.0266C161.256 39.0266 161.069 39.2133 160.883 39.2133C156.589 40.1466 159.016 42.76 159.016 42.76C159.016 42.76 164.243 52.28 159.203 62.7333C156.216 69.2666 155.843 78.4133 156.029 84.5733L153.976 88.3066L146.509 75.8L140.163 72.2533C138.296 69.2666 136.616 66.28 135.683 63.8533C134.003 59.3733 132.509 55.8266 131.949 52.84C135.123 51.9066 139.416 50.4133 145.016 47.8C156.589 42.3866 159.576 36.4133 159.576 36.4133L154.909 33.0533C154.909 33.0533 154.909 33.0533 154.909 32.8666C154.536 32.12 152.483 28.5733 153.043 26.1466C153.043 25.96 153.043 25.96 153.043 25.7733C153.043 25.5866 153.043 25.5866 153.229 25.4C153.229 25.4 153.229 25.2133 153.416 25.2133C153.416 25.0266 153.603 25.0266 153.603 24.84C153.789 24.6533 153.789 24.4666 153.976 24.4666C155.656 22.7866 158.829 21.6666 159.576 21.48H159.763C159.763 21.48 158.083 24.6533 160.696 27.64C163.496 30.2533 173.203 25.5866 173.763 25.4Z" fill="url(#paint19_linear_377_2556)"/>
<path d="M150.614 79.72C150.614 79.72 139.228 65.72 130.828 75.9866C124.481 83.8266 131.761 109.773 143.147 109.773C154.534 109.587 157.707 89.6133 150.614 79.72Z" fill="url(#paint20_linear_377_2556)"/>
<path d="M150.053 92.6C150.053 92.6 146.133 79.9066 133.066 82.52C133.066 82.52 137.546 82.52 140.906 86.8133C140.906 86.8133 141.093 98.5733 143.706 101.747C146.32 104.92 150.986 96.8933 150.053 92.6Z" fill="url(#paint21_linear_377_2556)"/>
<path d="M129.336 78.7866C129.336 78.7866 133.069 74.12 142.403 76.36C151.736 78.6 153.976 88.12 153.976 88.12C153.976 88.12 150.429 73.1866 140.909 70.9466C132.696 69.08 129.336 78.7866 129.336 78.7866Z" fill="url(#paint22_linear_377_2556)"/>
<path d="M138.666 82.3333C138.666 82.3333 133.999 90.1733 136.426 97.8267C136.426 97.8267 136.986 89.6133 141.466 84.5733L138.666 82.3333Z" fill="url(#paint23_linear_377_2556)"/>
<path opacity="0.5" d="M205.496 148.6C205.496 148.6 185.336 152.893 168.722 137.4C152.109 122.093 150.242 108.653 150.242 108.653C150.242 108.653 154.909 97.2667 154.162 89.6133C154.162 89.6133 153.789 87.56 156.216 85.6933C156.216 85.6933 157.149 88.4933 159.016 92.04C159.016 92.6 158.082 103.24 159.202 112.76C160.322 122.467 176.936 141.133 176.936 141.133C176.936 141.133 197.469 138.893 204.749 141.133C211.656 143.373 206.056 148.227 205.496 148.6Z" fill="url(#paint24_linear_377_2556)"/>
<path opacity="0.5" d="M194.109 106.973C194.109 106.973 209.976 110.147 221.736 108.84C221.736 108.84 212.589 117.24 194.109 106.973Z" fill="url(#paint25_linear_377_2556)"/>
<path d="M159.573 36.4133C158.453 31.9333 157.706 27.4533 157.52 22.9733C157.52 20.7333 157.52 18.3066 158.266 16.0666C158.64 14.9466 159.2 13.8266 160.133 12.8933C161.253 12.1466 162.373 11.7733 163.493 11.4C165.92 10.84 168.346 11.2133 170.586 11.5866L177.306 12.8933C181.786 13.8266 186.266 14.0133 190.56 13.2666C192.8 12.8933 194.853 12.3333 196.906 11.4C199.146 10.4666 201.76 10.28 204 10.84C206.426 11.4 208.48 12.8933 210.16 14.5733C211.84 16.2533 213.146 18.3066 214.08 20.36C216.133 24.4666 217.44 28.9466 218.186 33.6133C218.746 38.0933 219.12 42.76 218.186 47.24C218.56 42.76 218.186 38.0933 217.253 33.8C216.32 29.32 215.013 25.0266 212.773 21.1066C211.653 19.24 210.533 17.3733 208.853 15.6933C207.36 14.2 205.493 12.8933 203.44 12.52C201.386 12.1466 199.146 12.3333 197.28 13.08C195.226 14.0133 192.8 14.5733 190.56 14.9466C185.893 15.6933 181.226 15.32 176.746 14.3866L170.026 12.8933C167.786 12.52 165.546 12.1466 163.493 12.52C162.56 12.7066 161.44 13.08 160.693 13.64C159.946 14.2 159.386 15.1333 159.013 16.2533C158.266 18.3066 158.266 20.5466 158.08 22.7866C158.266 27.2666 158.826 31.9333 159.573 36.4133Z" fill="url(#paint26_linear_377_2556)"/>
<path d="M155.84 22.6L178.8 13.4533L190.187 8.97332C192.053 8.22665 193.92 7.47998 195.973 6.73332L198.96 5.79998C200.08 5.61332 201.013 5.42665 202.133 5.23998C206.427 4.86665 210.72 5.79998 214.453 8.03998C218.187 10.28 221.173 13.4533 223.04 17.1867C224.907 20.92 226.027 25.2133 226.027 29.32C226.027 33.4267 225.093 37.5333 223.6 41.4533C224.72 37.5333 225.467 33.4267 225.28 29.32C225.093 25.2133 223.973 21.2933 221.92 17.7466C219.867 14.3867 217.253 11.2133 213.707 9.34665C210.347 7.47998 206.24 6.54665 202.32 6.91998C201.387 7.10665 200.453 7.10665 199.333 7.29332L196.533 8.22665C194.667 8.97332 192.613 9.71998 190.747 10.4667C186.827 11.96 183.093 13.4533 179.173 14.76C171.52 17.56 163.68 20.1733 155.84 22.6Z" fill="url(#paint27_linear_377_2556)"/>
<path d="M226.215 106.973C226.215 106.973 221.735 135.533 207.548 147.48C207.362 147.48 226.215 133.853 226.215 106.973Z" fill="#34C7FF"/>
<path d="M187.762 108.84C187.762 108.84 196.908 124.333 208.108 122.467C208.108 122.467 210.162 119.667 212.588 116.12C213.522 114.627 215.202 114.067 216.882 111.827C216.882 111.827 208.668 114.813 189.628 105.853C189.815 105.853 187.762 106.787 187.762 108.84Z" fill="#FFEBED"/>
<path d="M235.362 381.56C230.322 390.147 179.362 406.76 159.575 390.147C139.602 373.347 106.562 276.467 106.562 276.467L109.175 270.493L110.482 273.48C115.708 275.72 117.388 273.48 118.695 260.227C119.442 253.133 120.002 242.68 121.122 228.12C124.295 186.307 101.708 161.107 101.708 161.107H98.5352V157.933C98.5352 157.933 113.655 156.44 120.935 153.267C124.482 151.773 126.908 150.28 128.588 149.347H128.775C130.082 148.413 130.828 147.853 131.015 147.667L131.388 149.347C132.322 153.64 133.628 157.56 135.122 161.293C138.482 169.133 143.148 175.667 148.375 181.08C162.002 195.64 178.242 201.987 178.242 201.987C187.015 193.587 187.948 179.773 187.388 170.627C187.015 165.027 186.082 161.107 186.082 161.107C186.082 161.107 192.055 166.147 194.668 167.453C197.468 168.76 203.255 167.64 203.255 167.64C234.428 203.667 229.388 273.667 229.388 273.667C228.828 277.96 228.268 282.067 227.895 286.36C224.162 328.733 230.322 372.413 230.322 372.413C230.322 372.413 240.402 372.973 235.362 381.56Z" fill="url(#paint28_linear_377_2556)"/>
<path opacity="0.5" d="M131.015 149.16C131.948 153.453 133.255 157.373 134.748 161.107C130.642 154.013 128.215 149.16 128.215 149.16H128.402L130.641 147.48L131.015 149.16Z" fill="url(#paint29_linear_377_2556)"/>
<path opacity="0.5" d="M181.787 207.587C168.72 201.427 157.147 192.653 148 180.893C161.627 195.453 177.867 201.8 177.867 201.8C186.64 193.4 187.573 179.587 187.013 170.44C187.76 171.56 188.32 172.68 188.507 173.987C190.747 188.733 181.787 207.587 181.787 207.587Z" fill="url(#paint30_linear_377_2556)"/>
<path d="M173.575 178.467C170.028 168.013 163.495 160.173 163.495 160.173C157.521 159.8 151.921 191.347 151.921 191.347C137.548 172.493 133.441 148.787 133.441 148.787C133.441 148.787 143.521 129.187 145.015 128.813C146.508 128.627 153.415 128.813 153.415 128.813C145.575 142.253 162.748 154.573 163.495 155.133C168.721 164.467 171.521 172.12 172.828 176.04C173.201 177.16 173.388 177.907 173.575 178.467Z" fill="url(#paint31_linear_377_2556)"/>
<path opacity="0.5" d="M106.373 276.467L108.987 270.493L110.293 273.48C118.507 276.84 127.653 273.667 130.64 231.853C133.813 190.04 101.333 161.293 101.333 161.293H98.1602V158.12C98.1602 158.12 125.787 174.92 134.747 207.587C139.787 226.067 137.92 243.8 133.067 257.8C128.96 270.493 122.613 280.387 106.373 276.467Z" fill="url(#paint32_linear_377_2556)"/>
<path d="M191.308 185.187C187.015 171.187 179.361 157.56 178.241 158.307C177.121 159.053 173.015 175.293 172.828 175.853C173.015 173.613 173.575 168.2 174.135 162.973C174.881 156.627 175.628 150.28 175.628 150.28L178.988 144.307C190.001 159.053 191.308 185.187 191.308 185.187Z" fill="url(#paint33_linear_377_2556)"/>
<path d="M209.601 265.267C207.361 278.893 199.335 304.653 199.335 304.653C199.335 304.653 187.575 283.933 181.788 270.12C183.841 265.08 185.521 259.667 185.335 257.427C185.148 255.373 183.095 251.08 180.668 246.787C183.468 232.6 188.695 213.747 188.695 213.747C188.695 213.747 198.588 229.613 204.935 243.427C203.628 248.467 202.881 252.947 203.255 255C203.441 257.24 206.428 261.347 209.601 265.267Z" fill="url(#paint34_linear_377_2556)"/>
<path d="M210.161 260.04C210.161 261.347 209.788 263.213 209.601 265.08C206.428 261.347 203.441 257.24 203.068 254.813C202.695 252.947 203.628 248.28 204.748 243.24C207.921 250.147 210.348 256.493 210.161 260.04Z" fill="url(#paint35_linear_377_2556)"/>
<path d="M226.403 248.28C226.963 253.32 217.63 274.04 217.63 274.04C217.63 274.04 213.523 269.747 209.603 265.08C209.977 263.027 210.163 261.347 210.163 260.04C210.35 256.493 207.923 250.147 204.75 243.24C206.99 233.72 210.723 222.333 210.723 222.333C210.723 222.333 225.843 243.24 226.403 248.28Z" fill="url(#paint36_linear_377_2556)"/>
<path d="M185.334 257.24C185.521 259.48 183.841 264.893 181.787 269.933C180.107 265.64 178.801 262.093 178.801 260.04C178.801 257.427 179.547 252.387 180.667 246.413C183.094 251.08 185.147 255.373 185.334 257.24Z" fill="url(#paint37_linear_377_2556)"/>
<path d="M181.789 270.12C179.549 276.093 177.123 281.507 177.123 281.507C177.123 281.507 164.243 268.627 163.496 263.4C162.749 258.173 173.016 233.533 173.016 233.533C173.016 233.533 177.123 240.253 180.669 246.6C179.549 252.573 178.616 257.613 178.803 260.227C178.803 262.28 179.923 265.827 181.789 270.12Z" fill="url(#paint38_linear_377_2556)"/>
<path opacity="0.5" d="M235.362 381.56C230.322 390.147 179.362 406.76 159.576 390.147C139.602 373.347 106.562 276.467 106.562 276.467L109.176 270.493L110.483 273.48C115.709 275.72 117.389 273.48 118.696 260.227L134.749 247.72C134.749 247.72 175.629 275.347 216.882 284.68C216.882 284.68 180.109 281.693 157.336 272.173C157.336 272.173 197.842 318.28 207.549 317.72C215.576 317.16 225.282 293.827 228.269 286.173C224.536 328.547 230.696 372.227 230.696 372.227C230.696 372.227 240.402 372.973 235.362 381.56Z" fill="url(#paint39_linear_377_2556)"/>
<path d="M19.0136 282.813L2.96023 386.973C2.0269 393.133 6.13356 398.92 12.2936 400.04L145.76 424.867C151.92 425.987 157.894 422.067 159.2 416.093L182.534 311.56C184.027 305.027 179.734 298.68 173.2 297.56L32.2669 273.107C26.1069 271.987 19.9469 276.28 19.0136 282.813Z" fill="url(#paint40_linear_377_2556)"/>
<path d="M16.5878 282.813L0.534448 386.973C-0.398886 393.133 3.70778 398.92 9.86778 400.04L143.334 424.867C149.494 425.987 155.468 422.067 156.774 416.093L180.108 311.56C181.601 305.027 177.308 298.68 170.774 297.56L29.8411 273.107C23.6811 271.987 17.7078 276.28 16.5878 282.813Z" fill="url(#paint41_linear_377_2556)"/>
<path d="M157.895 368.867L149.122 408.253C148.002 413.667 142.775 417.027 137.362 416.093L19.5752 394.067C14.1619 393.133 10.4286 387.907 11.3619 382.493L12.6686 373.907L43.4686 356.92C50.7486 352.813 59.8952 354.68 65.3086 361.027L75.0152 372.6L129.335 331.347C133.815 327.987 140.349 329.667 142.589 334.707L157.895 368.867Z" fill="url(#paint42_linear_377_2556)"/>
<path d="M125.789 315.107C125.789 322.2 120.002 327.8 113.096 327.8C106.002 327.8 100.402 322.013 100.402 315.107C100.402 308.013 106.189 302.413 113.096 302.413C120.189 302.413 125.789 308.2 125.789 315.107Z" fill="#72CEF3"/>
<path opacity="0.5" d="M75.0147 372.6L49.4414 391.267L66.4281 362.333L75.0147 372.6Z" fill="url(#paint43_linear_377_2556)"/>
<path opacity="0.5" d="M30.4014 311.187L21.4414 318.84C21.4414 318.84 40.1081 361.587 85.8414 385.48C133.441 410.493 156.961 416.093 156.961 416.093V410.493L30.4014 311.187Z" fill="url(#paint44_linear_377_2556)"/>
<path d="M152.107 368.867C151.173 369.8 150.8 370.733 150.987 370.92C151.173 371.48 155.28 374.84 160.88 376.333C163.12 376.893 165.36 377.267 167.973 377.08L169.653 374.467C169.653 374.467 174.88 375.027 177.12 378.013C179.173 381 176.933 384.547 175.44 386.413C173.76 388.28 175.067 391.453 173.947 394.253C173.013 397.053 169.467 400.227 169.28 400.973C169.093 401.72 168.347 405.64 167.413 406.76C166.48 407.88 164.053 409 163.493 409.56C162.933 410.12 161.627 411.8 159.2 412.547C156.773 413.107 144.08 411.053 117.2 385.293C117.2 385.293 113.653 381 106 377.267C106 377.267 111.04 365.693 121.493 364.013C121.493 364.013 125.227 366.44 128.96 366.44C128.96 366.44 137.547 357.853 141.84 357.107C146.32 356.547 158.267 358.973 165.173 358.413C172.08 357.853 180.107 356.547 181.413 357.853C182.72 359.16 176.747 365.693 170.213 367C163.867 368.307 160.507 365.32 157.52 365.32C155.653 365.693 153.413 367.373 152.107 368.867Z" fill="url(#paint45_linear_377_2556)"/>
<path opacity="0.5" d="M163.496 155.133C148.749 147.667 145.016 128.813 145.016 128.813C146.509 128.627 153.416 128.813 153.416 128.813C145.389 142.253 162.562 154.387 163.496 155.133Z" fill="url(#paint46_linear_377_2556)"/>
<path opacity="0.5" d="M174.133 162.973C174.879 156.627 175.626 150.28 175.626 150.28L178.986 144.307C179.733 152.52 174.133 162.973 174.133 162.973Z" fill="url(#paint47_linear_377_2556)"/>
<path d="M172.827 176.04L179.174 144.493C179.174 144.493 171.707 156.253 169.094 166.52L172.827 176.04Z" fill="#6446A6"/>
<path opacity="0.5" d="M101.52 157.56C101.52 157.56 125.226 167.08 137.92 167.267C137.92 167.267 133.626 158.68 130.64 147.667C130.64 147.48 121.493 158.307 101.52 157.56Z" fill="url(#paint48_linear_377_2556)"/>
<path d="M124.106 365.507C124.106 365.507 115.146 370.173 112.719 381.56L105.812 377.453C105.812 377.453 109.732 365.693 121.306 364.2L124.106 365.507Z" fill="#E4688E"/>
<path d="M167.973 377.08C167.973 377.08 175.439 377.453 176.186 377.08C177.119 376.707 171.146 374.093 168.719 373.533L167.973 377.08Z" fill="#E4688E"/>
<path d="M160.881 376.333C154.535 375.587 148.561 372.973 148.935 372.04C149.308 371.107 152.108 368.867 152.108 368.867C151.175 369.8 150.801 370.733 150.988 370.92C151.175 371.48 155.095 374.84 160.881 376.333Z" fill="#E4688E"/>
<path d="M133.442 242.867C132.696 245.853 132.136 248.653 131.389 251.267C126.162 269.933 120.002 274.227 115.336 274.6C114.962 274.6 114.402 274.6 114.029 274.6C111.789 274.413 110.296 273.667 110.296 273.667L108.616 266.76L106.749 259.107C106.749 258.733 106.562 258.547 106.562 258.36V258.173C86.4022 271.987 78.1889 296.067 78.1889 296.067C83.9756 314.92 102.642 337.507 116.082 352.067C119.442 355.8 122.616 358.973 125.042 361.4C128.589 364.947 128.589 364.947 128.589 364.947C117.389 365.133 113.282 382.12 113.282 382.12C35.2556 343.853 22.0022 304.093 21.6289 302.973C61.3889 229.8 77.0689 207.027 86.0289 176.6C86.0289 176.6 87.3356 163.533 88.0823 163.16C89.3889 162.227 95.5489 161.667 98.7223 161.48C100.029 161.293 100.962 161.293 100.962 161.293C108.242 164.653 140.536 209.827 133.442 242.867Z" fill="url(#paint49_linear_377_2556)"/>
<path opacity="0.3" d="M137.547 244.173C130.267 271.8 119.44 274.973 113.84 274.6L110.107 273.667L106.187 258.173L118.693 242.307C127.093 206.093 93.1198 174.547 93.1198 174.547C93.1198 174.547 86.9598 176.413 85.8398 176.6C85.8398 176.6 87.7065 163.533 87.8932 163.16C121.867 178.84 124.853 252.947 124.853 252.947C124.853 252.947 129.707 234.653 125.413 208.333C121.493 183.32 100.587 162.973 98.5332 161.48C98.3465 161.293 98.3465 161.293 98.3465 161.293H100.773C110.853 165.96 147.627 205.72 137.547 244.173Z" fill="url(#paint50_linear_377_2556)"/>
<path opacity="0.3" d="M78.0005 295.88C83.7871 314.733 102.454 337.32 115.894 351.88C99.2805 341.613 66.4271 294.2 66.4271 294.2C68.2938 291.027 91.6271 262.467 91.6271 262.467C68.2938 269 41.9738 282.813 40.4805 283.56C74.6405 259.853 118.88 241.933 118.88 241.933L108.614 266.573L106.374 257.987C86.2138 271.987 78.0005 295.88 78.0005 295.88Z" fill="url(#paint51_linear_377_2556)"/>
<path opacity="0.3" d="M128.401 364.947C117.201 365.133 113.095 382.12 113.095 382.12C35.0681 343.853 21.8147 304.093 21.4414 302.973C22.3747 304.28 49.8147 349.08 82.2947 358.227C103.575 364.2 117.575 363.08 124.855 361.587C128.401 364.947 128.401 364.947 128.401 364.947Z" fill="url(#paint52_linear_377_2556)"/>
<path opacity="0.5" d="M131.389 251.08C126.162 269.747 120.002 274.04 115.336 274.413C114.962 274.413 114.402 274.413 114.029 274.413C111.789 274.227 110.296 273.48 110.296 273.48L108.616 266.573L106.749 258.92C106.749 258.547 106.562 258.36 106.562 258.173V257.987L119.069 243.427C119.069 243.427 123.549 255 128.216 254.253C128.962 254.067 130.082 252.947 131.389 251.08Z" fill="url(#paint53_linear_377_2556)"/>
<path opacity="0.3" d="M78.0015 295.88C78.0015 295.88 62.3215 291.213 46.8281 294.573C46.8281 294.573 66.4281 281.32 80.8015 288.413L78.0015 295.88Z" fill="url(#paint54_linear_377_2556)"/>
<path opacity="0.5" d="M118.88 355.24C118.88 355.24 102.08 360.28 99.0938 375.027C99.0938 375.027 105.814 359.533 120.747 357.293L118.88 355.24Z" fill="url(#paint55_linear_377_2556)"/>
<path d="M118.881 386.973C118.881 386.973 117.201 374.28 125.788 366.067L124.855 365.693C124.855 365.693 114.961 369.053 113.281 382.12L118.881 386.973Z" fill="#E4688E"/>
<path d="M179.359 79.3466L185.333 81.2133C185.333 81.2133 185.893 78.4133 185.333 75.4266C185.333 75.4266 182.346 76.5466 179.359 79.3466Z" fill="#38368E"/>
<path d="M210.906 81.96C210.906 81.96 212.96 83.08 214.453 83.2666C214.453 83.2666 215.386 78.9733 214.453 75.6133C214.453 75.6133 211.84 77.8533 210.906 80.0933C210.906 80.0933 210.906 81.7733 210.906 81.96Z" fill="#38368E"/>
<path d="M185.707 79.3466C185.707 79.3466 188.694 78.4133 190.747 79.3466C190.747 79.3466 187.574 80.28 185.707 79.3466Z" fill="white"/>
<path d="M214.082 79.72C214.082 79.72 217.069 78.7866 219.122 79.72C219.122 79.72 215.949 80.84 214.082 79.72Z" fill="white"/>
<path d="M189.816 105.853C189.816 105.853 190.376 107.533 190.376 108.84C190.376 109.96 188.696 110.147 188.696 110.147L187.763 108.84C187.763 108.84 187.39 106.413 189.816 105.853Z" fill="#9F4A8B"/>
<path d="M366.4 259.853C359.12 287.293 366.4 309.133 366.4 330.787C366.4 352.44 355.947 381 355.947 381C355.76 363.453 340.453 324.067 341.573 295.507C342.693 266.947 359.68 229.427 353.147 200.12C352.213 195.827 350.533 193.213 349.04 191.533C346.24 188.36 343.067 188.36 343.067 188.36L341.387 184.253C341.387 184.253 350.907 177.907 358.933 182.573C359.493 182.947 360.053 183.32 360.613 183.88C363.227 186.12 365.467 191.72 367.147 199.187C368.827 207.213 369.947 217.293 370.133 227.747C369.947 238.573 368.827 250.147 366.4 259.853Z" fill="url(#paint56_linear_377_2556)"/>
<path opacity="0.5" d="M363.038 274.04C363.038 274.04 366.025 249.4 361.918 223.08C358.185 198.067 349.598 192.093 348.665 191.533L341.385 187.987L341.012 184.253L342.132 181.08L355.385 176.227L358.558 182.573L366.772 199.187C368.452 207.213 369.572 217.293 369.758 227.747L363.038 274.04Z" fill="url(#paint57_linear_377_2556)"/>
<path d="M298.453 282.253C298.453 282.253 304.613 276.28 314.88 280.573C314.88 280.573 311.333 284.12 305.733 284.12C300.133 284.12 298.453 282.253 298.453 282.253Z" fill="url(#paint58_linear_377_2556)"/>
<path d="M263.547 199.187C263.547 199.187 259.813 206.467 261.867 218.413C262.613 223.453 270.267 205.16 270.267 205.16C270.267 205.16 266.347 199.373 263.547 199.187Z" fill="url(#paint59_linear_377_2556)"/>
<path d="M327.012 183.507C327.012 183.507 331.305 179.4 335.972 182.573C335.972 182.573 336.532 181.453 338.212 181.267C339.892 180.893 344.745 190.04 343.438 196.947C342.132 203.853 331.305 195.267 331.305 195.267L327.012 183.507Z" fill="url(#paint60_linear_377_2556)"/>
<path d="M321.975 262.653C321.975 262.653 318.801 271.987 322.535 279.453C322.535 279.453 314.508 274.413 313.575 268.253C312.828 262.093 321.975 262.653 321.975 262.653Z" fill="url(#paint61_linear_377_2556)"/>
<path d="M301.065 277.213C301.065 277.213 302.745 284.68 301.625 288.227C301.625 288.227 298.265 289.347 296.585 289.347C294.905 289.347 299.198 298.68 306.851 297.187C314.691 295.693 318.238 287.853 318.238 287.853C318.238 287.853 313.571 286.92 313.011 285.8C312.451 284.68 314.505 270.68 314.505 270.68L301.065 277.213Z" fill="url(#paint62_linear_377_2556)"/>
<path d="M267.093 201.8C262.613 207.773 260.56 218.787 262.427 227.373C264.293 235.96 267.28 250.52 266.907 252.013C266.533 253.507 262.053 257.613 264.293 264.893C266.347 272.173 281.467 278.52 283.707 280.76C285.76 283 303.68 282.44 316 270.867C328.32 259.293 328.133 239.507 328.133 235.587C328.133 231.667 327.76 211.133 315.44 203.107C302.933 195.453 276.053 190.227 267.093 201.8Z" fill="url(#paint63_linear_377_2556)"/>
<path d="M262.801 211.88C262.801 211.88 277.734 211.133 301.254 209.827C315.627 209.08 323.281 233.533 324.587 245.667L325.894 243.987L322.534 207.773L310.774 199.56L265.601 204.413C265.601 204.227 263.547 208.147 262.801 211.88Z" fill="#E4688E"/>
<path d="M340.079 253.133L326.266 248.28C326.266 248.28 325.519 238.387 322.906 230.733C320.292 223.08 315.812 218.04 315.812 218.04L320.292 218.413C320.292 218.413 314.879 211.507 313.012 205.72C313.012 205.72 311.519 205.72 303.306 205.16C292.852 204.413 287.439 212.067 269.706 209.08C263.546 205.72 261.306 204.973 263.359 198.813C269.706 189.667 298.826 185.56 308.346 183.507C319.172 181.267 331.119 183.693 331.119 183.693C331.119 183.693 334.852 186.12 338.026 191.72C339.332 194.147 339.892 196.013 340.079 197.32C340.452 199.187 340.079 200.307 340.079 200.307C340.079 200.307 340.639 203.48 341.946 209.827C341.946 209.827 341.946 209.827 341.946 210.013C341.946 210.013 341.946 210.013 341.946 210.2C341.946 210.387 341.946 210.387 341.946 210.573C341.946 210.76 342.132 211.133 342.132 211.507C342.506 213.56 343.066 215.987 343.626 218.6V218.787C344.186 221.4 344.932 224.573 345.679 227.747C346.239 230.173 346.426 232.227 346.612 234.28C347.732 247.72 340.079 253.133 340.079 253.133Z" fill="url(#paint64_linear_377_2556)"/>
<path d="M337.094 183.88C337.094 183.88 345.12 172.307 351.28 170.813C357.44 169.32 379.094 195.827 374.614 231.107C370.134 266.2 361.174 287.48 366.774 310.813C372.187 334.147 387.494 381.56 368.64 397.053C368.64 397.053 379.84 387.16 374.054 352.067C369.947 327.613 365.84 317.72 365.84 317.72C365.84 317.72 373.307 341.053 371.067 363.64C368.827 386.04 351.84 397.053 351.84 397.053C351.84 397.053 362.294 361.96 359.307 336.387C355.76 307.64 360.614 290.28 362.294 279.267C364.534 264.707 368.827 237.267 366.214 208.52C363.6 179.96 350.907 177.347 341.2 183.88H337.094Z" fill="url(#paint65_linear_377_2556)"/>
<path d="M339.52 181.827C342.506 178.84 346.426 176.413 350.72 176.04C352.96 175.853 355.2 176.413 357.066 177.347C358.933 178.467 360.613 179.96 362.106 181.453C364.906 184.813 366.773 188.733 368.266 192.84C369.76 196.947 370.88 201.053 371.813 205.347C372.746 209.64 373.493 213.747 374.053 218.04C374.613 222.333 374.8 226.627 374.986 230.92C375.173 239.507 374.24 248.093 374.053 256.68C373.866 260.973 374.053 265.267 374.426 269.373C374.8 273.667 375.546 277.773 376.106 282.067C377.226 290.653 378.16 299.24 378.16 307.827C378.16 316.413 377.04 325.187 374.24 333.4C371.44 341.613 366.586 349.08 359.68 354.307C362.853 351.507 365.653 348.147 367.893 344.6C370.133 341.053 371.813 337.133 373.12 333.027C375.733 325 376.48 316.413 376.293 307.827C376.293 299.24 375.36 290.84 374.053 282.44C373.493 278.147 372.746 274.04 372.186 269.747C371.813 265.453 371.813 261.16 371.813 256.867C372 248.28 372.933 239.693 372.933 231.293C372.933 222.707 371.813 214.307 370.133 205.907C369.2 201.8 368.266 197.507 366.773 193.587C365.28 189.667 363.6 185.747 360.986 182.387C359.68 180.707 358.186 179.213 356.32 178.28C354.453 177.16 352.4 176.787 350.346 176.787C346.613 176.6 342.693 178.84 339.52 181.827Z" fill="#FF51AA"/>
<path d="M286.693 250.333C286.693 250.333 295.093 252.2 303.306 250.893C311.52 249.587 314.506 243.987 314.506 243.987C314.506 243.987 310.026 228.867 303.866 226.253C297.706 223.64 286.693 222.52 286.693 222.52C286.693 222.52 285.573 245.293 286.693 250.333Z" fill="url(#paint66_linear_377_2556)"/>
<path d="M266.719 252.76C266.719 252.76 267.092 255.187 269.145 254.813C271.012 254.253 274.745 250.147 274.932 245.667C274.932 241.187 270.265 232.787 270.265 232.787C270.265 232.787 267.465 227.187 265.039 227.373C262.612 227.56 262.986 229.987 262.986 229.987C262.986 229.987 267.652 245.667 266.719 252.76Z" fill="url(#paint67_linear_377_2556)"/>
<path d="M262.987 229.8C262.987 229.8 261.867 223.827 264.107 223.827C267.094 223.827 268.96 228.68 270.267 232.787C270.267 232.787 267.84 227.56 265.04 227.373C263.36 227.187 262.987 229.8 262.987 229.8Z" fill="#38368E"/>
<path d="M286.694 221.213C285.76 221.213 286.32 224.387 291.36 225.133C297.707 226.067 298.454 224.76 304.054 226.813C304.24 226.813 298.64 221.027 286.694 221.213Z" fill="#38368E"/>
<path d="M272.879 250.333C271.946 251.827 270.639 252.947 269.706 253.32C267.652 253.88 267.466 250.333 267.466 250.333C266.532 247.72 265.412 234.28 267.466 234.653C268.212 234.84 269.332 235.587 270.266 237.08C271.946 239.133 273.439 242.307 273.812 245.107C273.999 247.16 273.626 248.84 272.879 250.333Z" fill="#FFEBED"/>
<path d="M288.932 248.28C289.119 249.4 293.226 251.453 298.826 250.707C305.546 249.773 308.159 244.173 308.159 243.613C308.159 243.427 308.159 239.507 307.412 238.2C305.732 235.213 302.932 233.16 299.012 233.16C291.919 233.16 288.372 242.867 288.932 248.28Z" fill="#FFEBED"/>
<path d="M268.398 257.8C268.398 257.8 271.012 251.827 275.492 251.08C279.972 250.333 284.265 257.613 284.265 257.613L268.398 257.8Z" fill="#FFB398"/>
<path d="M268.4 257.8C268.214 257.24 281.094 256.867 284.267 257.613C284.267 257.613 281.654 261.16 276.987 261.907C272.507 262.653 268.96 259.293 268.4 257.8Z" fill="url(#paint68_linear_377_2556)"/>
<path d="M279.227 261.347C279.227 261.347 280.907 258.36 283.707 258.36C283.707 258.36 281.28 260.6 279.227 261.347Z" fill="#9F4A8B"/>
<path d="M273.069 261.533C273.069 261.533 269.149 260.04 268.402 257.613C268.402 257.613 269.149 254.253 272.322 252.387C272.322 252.387 269.336 254.813 269.522 257.427C269.709 257.613 271.016 260.6 273.069 261.533Z" fill="#CB4D7A"/>
<path d="M307.785 241.56C307.785 245.48 304.799 248.467 301.252 248.467C297.705 248.467 294.719 245.293 294.719 241.56C294.719 237.64 297.705 234.653 301.252 234.653C304.799 234.653 307.785 237.64 307.785 241.56Z" fill="#7F9EC9"/>
<path d="M305.919 241.56C305.919 243.987 304.052 246.04 301.625 246.04C299.199 246.04 297.332 243.987 297.332 241.56C297.332 239.133 299.199 237.08 301.625 237.08C304.052 237.08 305.919 239.133 305.919 241.56Z" fill="#38368E"/>
<path d="M272.879 250.333H272.693C270.639 250.52 268.773 247.533 268.399 243.613C268.213 240.627 268.959 238.2 270.453 237.08C272.133 239.133 273.626 242.307 273.999 245.107C273.999 247.16 273.626 248.84 272.879 250.333Z" fill="#7F9EC9"/>
<path d="M273.255 249.027C273.255 249.027 272.882 249.027 272.695 249.027C271.388 249.027 270.082 247.16 269.895 244.547C269.708 242.68 270.268 240.44 271.202 239.693C272.322 241.187 273.442 243.427 273.628 245.293C274.002 246.787 273.815 248.093 273.255 249.027Z" fill="#38368E"/>
<path d="M273.813 245.667C273.813 245.667 270.827 236.333 267.84 236.893C264.853 237.453 266.347 244.733 266.347 244.733L262.613 243.24L265.227 242.867C265.227 242.867 265.04 234.28 267.093 233.907C269.147 233.533 273.253 240.813 273.813 245.667Z" fill="#131163"/>
<path d="M296.772 260.413C296.772 260.787 296.399 262.84 295.466 265.08V265.267C294.532 267.507 293.226 269.933 291.546 271.8C287.812 275.533 284.079 275.533 283.146 274.973C282.212 274.413 281.466 272.547 280.719 271.053C280.159 269.747 279.786 268.627 279.039 268.253C278.292 267.693 276.986 267.32 276.426 267.133C276.986 267.32 279.412 267.693 285.199 265.453C292.106 263.027 296.212 259.107 296.212 259.107C296.212 259.107 296.772 259.48 296.772 260.413Z" fill="#9F4A8B"/>
<path d="M351.465 353.187C351.465 353.187 358.558 353.187 362.105 351.32L359.678 345.533L357.998 338.44H356.692L351.465 353.187Z" fill="#FE9083"/>
<path d="M296.398 280.947C296.398 280.947 311.332 277.213 318.238 259.853C323.652 246.227 323.838 238.573 323.838 238.573L326.078 243.987C326.078 243.987 324.398 258.733 322.158 262.84C319.732 266.76 313.198 277.587 296.398 280.947Z" fill="url(#paint69_linear_377_2556)"/>
<path d="M288.746 246.973C288.746 246.973 290.053 235.587 297.333 234.093C304.053 232.787 306.853 238.76 306.853 238.76C306.853 238.76 309.279 237.827 310.773 236.893L307.226 236.147C307.226 236.147 303.866 230.36 297.706 231.48C291.733 232.787 288.746 242.493 288.746 246.973Z" fill="#131163"/>
<path d="M345.68 387.16C345.68 389.027 337.654 403.587 306.667 405.453C296.027 406.013 288.187 405.453 282.214 404.333C270.08 401.907 267.094 396.68 268.214 392.76C268.96 389.96 272.134 364.013 275.68 338.627C279.227 313.053 282.96 287.853 285.2 287.293C289.494 286.173 299.387 288.787 299.574 287.293C299.76 285.8 298.454 282.067 298.454 282.067C306.107 285.613 314.88 280.387 314.88 280.387C314.88 280.387 314.134 286.36 315.067 286.92C316 287.48 325.147 284.68 325.894 285.613C326.64 286.547 327.2 350.947 331.867 363.64C332.987 366.813 334.48 369.613 335.974 372.413C337.654 375.4 339.334 377.827 340.827 380.067L341.014 380.253C343.627 383.987 345.68 386.413 345.68 387.16Z" fill="url(#paint70_linear_377_2556)"/>
<path opacity="0.5" d="M288.747 374.467C288.747 374.467 294.16 392.2 304.614 402.093C303.867 401.533 291.734 393.88 284.827 382.12L282.214 404.333C270.08 401.907 267.094 396.68 268.214 392.76C268.96 389.96 272.134 364.013 275.68 338.627L281.28 321.08L292.294 306.52C292.294 306.52 293.227 327.427 296.587 335.267C299.76 343.107 334.854 371.667 335.974 372.413L340.827 380.067L341.014 380.253C341.2 380.253 307.974 389.4 288.747 374.467Z" fill="url(#paint71_linear_377_2556)"/>
<path d="M321.785 285.987C321.785 285.987 325.892 283.56 327.572 283.933C329.252 284.493 349.038 309.88 352.398 320.147L330.558 319.027C330.558 319.027 327.385 304.653 324.772 297.187C321.972 289.907 321.785 285.987 321.785 285.987Z" fill="url(#paint72_linear_377_2556)"/>
<path d="M294.908 293.08L352.962 289.347L347.548 365.133L297.148 362.707C297.148 362.707 293.788 298.12 294.908 293.08Z" fill="url(#paint73_linear_377_2556)"/>
<path d="M359.68 298.493L354.08 371.293L305.174 374.467C295.84 373.347 291.547 367.373 291.547 367.373L294.72 293.08C297.334 300.173 307.04 300.36 307.04 300.36L358.747 297.187L359.68 298.493Z" fill="url(#paint74_linear_377_2556)"/>
<path d="M354.829 297.373L309.469 300.173C309.469 300.173 309.282 300.173 308.909 300.173H308.535C306.482 299.8 301.815 298.493 298.082 294.2L332.242 292.333H332.429L350.909 291.4C351.095 291.027 351.095 294.573 354.829 297.373Z" fill="url(#paint75_linear_377_2556)"/>
<path d="M352.96 289.347L294.906 293.08L296.4 291.96L349.786 288.413L352.96 289.347Z" fill="url(#paint76_linear_377_2556)"/>
<path d="M312.265 305.027L311.332 338.44L351.092 336.2L352.772 302.227L312.265 305.027Z" fill="url(#paint77_linear_377_2556)"/>
<path opacity="0.76" d="M334.108 333.773C334.108 333.773 331.308 354.307 305.734 357.293L305.361 374.467C296.028 373.347 291.734 367.373 291.734 367.373L294.908 293.08C297.521 300.173 307.228 300.36 307.228 300.36L306.854 341.427L334.108 333.773Z" fill="url(#paint78_linear_377_2556)"/>
<path opacity="0.5" d="M309.652 300.173H309.092H308.719C306.666 299.8 301.999 298.493 298.266 294.2L332.426 292.333C321.972 293.08 310.586 294.013 309.466 295.32C307.412 297.373 309.652 300.173 309.652 300.173Z" fill="url(#paint79_linear_377_2556)"/>
<path d="M262.801 329.293C262.801 329.293 273.814 336.947 290.987 323.32C290.987 323.32 285.761 319.4 275.867 321.827C265.974 324.253 262.801 329.293 262.801 329.293Z" fill="url(#paint80_linear_377_2556)"/>
<path d="M334.479 333.587C334.479 333.587 334.666 334.707 332.986 336.573C331.306 338.44 323.092 341.427 323.092 341.427C323.092 341.427 325.146 341.427 328.319 341.8C331.492 342.173 332.986 342.733 332.612 343.48C332.052 344.413 324.772 346.28 316.932 345.72C315.439 345.533 314.132 345.347 312.826 345.16C307.412 344.227 304.052 342.36 304.052 342.36C291.732 356.173 271.012 362.893 268.399 362.52H268.212C266.719 361.773 261.679 351.32 265.039 332.467C268.586 312.68 284.452 286.92 285.199 287.293C295.839 290.84 286.319 319.587 286.319 319.587C283.332 326.12 281.092 339.187 281.092 339.187C286.879 339.747 301.066 335.08 301.999 333.4C302.932 331.72 304.052 326.307 304.799 324.44C305.546 322.76 309.466 321.453 312.266 319.773C315.066 318.093 318.052 313.987 318.612 314.173C319.172 314.36 320.106 316.6 319.359 319.213C318.612 321.827 311.706 325.933 313.946 326.68C316.186 327.427 324.399 326.307 326.639 325.187C328.879 324.067 333.732 323.133 333.359 324.627C332.986 326.307 326.079 330.973 326.079 330.973C330.186 330.227 334.852 330.04 335.226 331.16C335.412 332.467 334.479 333.587 334.479 333.587Z" fill="url(#paint81_linear_377_2556)"/>
<path d="M290.613 287.293C290.613 287.293 286.133 285.8 283.707 286.173C277.733 287.293 267.467 311.56 262.613 329.293C262.613 329.293 277.173 319.587 290.8 323.32C290.8 323.32 293.6 319.4 289.867 317.347C292.293 309.507 294.907 296.627 290.613 287.293Z" fill="url(#paint82_linear_377_2556)"/>
<path d="M357.065 334.333C357.065 334.333 359.492 334.333 360.425 335.267C361.358 336.2 361.545 337.693 360.798 338.627C360.052 339.56 359.678 339.747 359.678 339.747C359.678 339.747 360.425 340.12 361.358 340.867C362.292 341.613 362.478 343.667 361.732 344.227C361.732 344.227 363.785 346.467 361.918 348.333C361.918 348.333 363.972 349.267 364.158 351.133C364.158 353.187 359.865 355.8 358.372 354.68C356.878 353.373 360.425 351.32 360.425 351.32C360.425 351.32 357.252 352.813 355.012 352.253C352.772 351.693 354.638 349.08 354.638 349.08C354.638 349.08 352.772 348.333 352.958 347.027C353.145 345.72 357.998 342.36 357.998 342.36L358.185 340.867C358.185 340.867 355.198 341.8 354.078 340.68C353.145 339.747 356.878 336.573 356.878 336.573L357.065 334.333Z" fill="url(#paint83_linear_377_2556)"/>
<path opacity="0.5" d="M318.428 205.72C318.428 205.72 311.708 205.533 303.495 204.973C293.041 204.227 287.628 211.88 269.895 208.893C269.895 208.893 257.015 204.787 265.415 196.387H265.601C265.601 196.387 262.428 200.307 271.015 202.36C283.521 205.347 298.268 196.947 314.321 198.813C326.455 200.12 331.121 203.107 335.041 201.8C339.895 200.307 340.455 197.133 340.455 197.133C340.455 197.133 340.081 205.72 337.841 210.573C335.415 215.24 318.428 205.72 318.428 205.72Z" fill="url(#paint84_linear_377_2556)"/>
<path opacity="0.5" d="M340.078 253.133L326.265 248.28C326.265 248.28 325.518 238.387 322.905 230.733C320.292 223.08 315.812 218.04 315.812 218.04L320.292 218.413C320.292 218.413 314.878 211.507 313.012 205.72C313.012 207.96 319.172 214.12 325.332 220.093C333.918 228.12 341.385 228.12 343.438 227C345.118 226.067 343.065 215.613 342.318 211.32C342.318 210.947 342.132 210.573 342.132 210.387C342.132 210.2 342.132 210.2 342.132 210.013C342.318 210.947 343.252 214.493 343.998 218.413V218.6C344.745 223.453 345.305 228.867 344.185 231.48C342.132 236.893 323.465 226.067 323.465 226.067C323.465 226.067 335.038 238.76 341.572 239.32C345.678 239.693 346.798 236.52 347.172 234.093C347.732 247.72 340.078 253.133 340.078 253.133Z" fill="url(#paint85_linear_377_2556)"/>
<path d="M324.772 246.6C324.772 246.6 334.292 237.453 340.079 245.107C344.559 251.08 337.652 268.813 328.879 268.253C320.106 267.693 318.799 253.32 324.772 246.6Z" fill="url(#paint86_linear_377_2556)"/>
<path d="M324.773 254.813C324.773 254.813 328.506 246.04 338.4 248.653C338.4 248.653 334.853 248.28 332.24 251.267C332.24 251.267 331.493 259.667 329.253 261.533C327.013 263.773 323.84 257.8 324.773 254.813Z" fill="url(#paint87_linear_377_2556)"/>
<path d="M324.587 264.52C324.4 266.013 325.52 267.507 327.2 267.693C328.693 267.88 330.187 266.76 330.373 265.08C330.56 263.587 329.44 262.093 327.76 261.907C326.267 261.907 324.773 263.027 324.587 264.52Z" fill="#365EE0"/>
<path d="M341.011 247.347C341.011 247.347 338.398 243.8 331.118 244.92C323.838 246.04 321.598 250.52 321.598 250.52C321.598 250.52 324.958 242.307 332.424 241.373C339.144 240.253 341.011 247.347 341.011 247.347Z" fill="url(#paint88_linear_377_2556)"/>
<path opacity="0.5" d="M331.308 183.507C331.308 183.507 322.535 183.133 314.321 185.373C306.108 187.613 301.441 188.92 301.441 188.92C301.441 188.92 321.601 188.173 331.308 184.813V183.507Z" fill="url(#paint89_linear_377_2556)"/>
<path d="M270.078 208.893C268.025 205.907 266.532 202.547 265.598 199C265.225 197.133 264.852 195.267 265.225 193.4C265.412 191.533 266.158 189.48 267.652 188.173C269.145 186.867 271.012 186.12 272.692 185.56C274.558 185 276.425 184.813 278.292 184.813C282.025 184.627 285.572 184.813 289.305 185.187C292.852 185.373 296.585 185.747 300.132 185.747C303.678 185.747 307.225 185.56 310.772 185.187C314.318 184.813 317.865 184.253 321.598 183.88C323.465 183.693 325.145 183.507 327.012 183.507C327.945 183.507 328.878 183.32 329.812 183.507C330.745 183.507 331.678 183.507 332.425 183.88C331.678 183.507 330.558 183.693 329.812 183.693C328.878 183.693 327.945 183.88 327.198 184.067C325.332 184.253 323.652 184.627 321.785 185C318.238 185.56 314.692 186.307 311.145 186.867C303.865 187.987 296.585 187.8 289.305 187.427C285.758 187.24 282.025 186.867 278.478 187.053C274.932 187.24 271.385 187.8 268.772 189.853C267.465 190.973 266.718 192.467 266.532 194.147C266.158 195.827 266.345 197.693 266.718 199.373C267.278 202.36 268.398 205.72 270.078 208.893Z" fill="#FF51AA"/>
<path d="M277.734 209.453C280.161 204.787 284.081 201.053 288.561 198.067C290.801 196.573 293.228 195.453 295.654 194.707C298.081 193.96 300.694 193.213 303.308 192.653C308.348 191.533 313.574 190.6 318.614 189.667C321.228 189.293 323.654 188.733 326.268 188.173C328.881 187.613 331.308 187.053 333.548 185.933C331.494 187.613 328.881 188.36 326.454 189.107C324.028 189.853 321.414 190.6 318.801 191.16L303.681 194.52C298.641 195.64 293.601 196.76 289.308 199.373C285.014 201.987 280.908 205.347 277.734 209.453Z" fill="#FF51AA"/>
<path d="M301.812 280.947C301.812 280.947 304.986 282.627 309.279 281.32C313.572 280.013 313.946 276.84 313.946 276.84L314.506 272.547C314.506 272.547 308.719 277.773 301.812 279.64V280.947Z" fill="#CB4D7A"/>
<path opacity="0.39" d="M296.772 260.413C296.772 260.787 296.399 262.84 295.466 265.08V265.267C286.879 264.147 280.719 271.053 280.719 271.053C280.159 269.747 279.786 268.627 279.039 268.253C278.292 267.693 276.986 267.32 276.426 267.133C276.986 267.32 279.412 267.693 285.199 265.453C292.106 263.027 296.212 259.107 296.212 259.107C296.212 259.107 296.772 259.48 296.772 260.413Z" fill="#A8485B"/>
<path d="M279.227 267.133C279.227 267.133 281.84 269.56 284.267 269.56C287.067 269.56 290.8 263.96 291.733 262.467C291.733 262.467 285.387 266.013 279.227 267.133Z" fill="#FFEBED"/>
<path d="M293.602 259.667C293.602 259.667 297.522 260.227 299.575 261.347C299.575 261.347 296.962 257.8 295.468 257.987C293.975 257.987 293.602 259.667 293.602 259.667Z" fill="url(#paint90_linear_377_2556)"/>
<path d="M276.425 267.133L275.305 266.947C275.305 266.947 276.051 269.373 279.411 268.813C279.411 268.627 278.665 267.32 276.425 267.133Z" fill="url(#paint91_linear_377_2556)"/>
<path d="M334.479 333.587C334.479 333.587 329.065 335.64 325.332 336.76C325.332 336.76 331.679 335.64 334.292 334.52C334.292 334.52 334.479 334.147 334.479 333.587Z" fill="#E4688E"/>
<path d="M325.708 331.347C325.708 331.347 323.654 331.907 322.348 332.28C322.348 332.28 326.828 331.907 329.814 330.787C329.814 330.973 326.828 331.16 325.708 331.347Z" fill="#E4688E"/>
<path d="M322.907 341.427C322.907 341.427 321.227 341.8 319.547 341.987C319.547 341.987 324.4 342.547 328.134 341.987C328.134 341.987 325.147 341.24 322.907 341.427Z" fill="#E4688E"/>
<path d="M361.734 344.04C361.734 344.04 360.241 347.213 354.641 348.893C354.641 348.893 361.361 347.587 362.107 344.787L361.734 344.04Z" fill="#E4688E"/>
<path d="M264.668 334.333C264.668 334.333 271.948 328.733 283.148 329.107C283.148 329.107 284.268 324.44 285.015 322.573C285.015 322.573 276.428 321.827 266.161 327.427C266.161 327.427 264.855 333.027 264.668 334.333Z" fill="#E4688E"/>
<path d="M280.907 339.187C280.907 339.187 277.734 340.12 275.867 342.547C275.867 342.547 277.174 337.32 281.28 336.76L280.907 339.187Z" fill="#FE9083"/>
<path d="M301.814 333.4C301.814 333.4 303.68 332.84 304.427 331.533C305.36 330.227 304.427 324.627 304.427 324.627C304.427 324.627 301.627 332.84 301.814 333.4Z" fill="#FE9083"/>
<path opacity="0.3" d="M291.175 318.467C291.175 318.467 283.521 317.16 273.441 319.773C273.441 319.773 282.401 314.92 290.241 316.6L290.055 317.533L291.175 318.467Z" fill="url(#paint92_linear_377_2556)"/>
<path d="M293.973 244.547C293.973 244.547 295.466 242.68 298.826 243.24C298.826 243.24 295.839 245.107 293.973 244.547Z" fill="white"/>
<path d="M267.281 246.413C267.281 246.413 268.588 244.547 271.761 245.293C271.948 245.293 269.148 246.973 267.281 246.413Z" fill="white"/>
<defs>
<linearGradient id="paint0_linear_377_2556" x1="267.157" y1="387.776" x2="267.157" y2="173.351" gradientUnits="userSpaceOnUse">
<stop stop-color="#CBC1F7"/>
<stop offset="1" stop-color="#E8DCF7"/>
</linearGradient>
<linearGradient id="paint1_linear_377_2556" x1="194.299" y1="280.563" x2="340.016" y2="280.563" gradientUnits="userSpaceOnUse">
<stop stop-color="#9D68C2"/>
<stop offset="1" stop-color="#CCEDFF"/>
</linearGradient>
<linearGradient id="paint2_linear_377_2556" x1="228.855" y1="314.479" x2="228.855" y2="211.816" gradientUnits="userSpaceOnUse">
<stop stop-color="#755CBB"/>
<stop offset="1" stop-color="#CCEDFF"/>
</linearGradient>
<linearGradient id="paint3_linear_377_2556" x1="160.655" y1="211.013" x2="160.655" y2="145.601" gradientUnits="userSpaceOnUse">
<stop stop-color="#B9ACF4"/>
<stop offset="1" stop-color="#E1D1F5"/>
</linearGradient>
<linearGradient id="paint4_linear_377_2556" x1="223.897" y1="51.2165" x2="223.897" y2="21.5311" gradientUnits="userSpaceOnUse">
<stop stop-color="#0E1B6D"/>
<stop offset="1" stop-color="#0E4095"/>
</linearGradient>
<linearGradient id="paint5_linear_377_2556" x1="187.089" y1="147.901" x2="187.089" y2="23.6313" gradientUnits="userSpaceOnUse">
<stop offset="0.0159875" stop-color="#FFC2A9"/>
<stop offset="1" stop-color="#FF9595"/>
</linearGradient>
<linearGradient id="paint6_linear_377_2556" x1="190.402" y1="108.072" x2="190.402" y2="104.743" gradientUnits="userSpaceOnUse">
<stop stop-color="#E8868D"/>
<stop offset="1" stop-color="#FF8883"/>
</linearGradient>
<linearGradient id="paint7_linear_377_2556" x1="180.315" y1="90.8395" x2="180.315" y2="0.199982" gradientUnits="userSpaceOnUse">
<stop stop-color="#2E33A0"/>
<stop offset="1" stop-color="#0665A5"/>
</linearGradient>
<linearGradient id="paint8_linear_377_2556" x1="185.703" y1="39.9156" x2="185.703" y2="17.4123" gradientUnits="userSpaceOnUse">
<stop stop-color="#0E1B6D"/>
<stop offset="1" stop-color="#0E4095"/>
</linearGradient>
<linearGradient id="paint9_linear_377_2556" x1="169.034" y1="135.656" x2="169.034" y2="75.8748" gradientUnits="userSpaceOnUse">
<stop stop-color="#FF7C7C"/>
<stop offset="0.984" stop-color="#FF9E8B"/>
</linearGradient>
<linearGradient id="paint10_linear_377_2556" x1="202.367" y1="124.618" x2="202.367" y2="110.143" gradientUnits="userSpaceOnUse">
<stop stop-color="#E8868D"/>
<stop offset="1" stop-color="#FF8883"/>
</linearGradient>
<linearGradient id="paint11_linear_377_2556" x1="186.748" y1="86.692" x2="186.748" y2="50.5647" gradientUnits="userSpaceOnUse">
<stop offset="0.0159875" stop-color="#FF9E8B"/>
<stop offset="1" stop-color="#FF7C7C"/>
</linearGradient>
<linearGradient id="paint12_linear_377_2556" x1="188.741" y1="149.213" x2="188.741" y2="85.7598" gradientUnits="userSpaceOnUse">
<stop stop-color="#2E33A0"/>
<stop offset="1" stop-color="#0665A5"/>
</linearGradient>
<linearGradient id="paint13_linear_377_2556" x1="208.319" y1="105.463" x2="209.691" y2="98.3181" gradientUnits="userSpaceOnUse">
<stop stop-color="#E1616A"/>
<stop offset="1" stop-color="#FF8883"/>
</linearGradient>
<linearGradient id="paint14_linear_377_2556" x1="216.4" y1="86.8703" x2="216.4" y2="56.973" gradientUnits="userSpaceOnUse">
<stop offset="0.0159875" stop-color="#FF9E8B"/>
<stop offset="1" stop-color="#FF7C7C"/>
</linearGradient>
<linearGradient id="paint15_linear_377_2556" x1="186.234" y1="79.3886" x2="186.234" y2="67.3535" gradientUnits="userSpaceOnUse">
<stop stop-color="#CF6074"/>
<stop offset="1" stop-color="#FF817F"/>
</linearGradient>
<linearGradient id="paint16_linear_377_2556" x1="214.939" y1="80.7308" x2="214.939" y2="67.3537" gradientUnits="userSpaceOnUse">
<stop stop-color="#CF6074"/>
<stop offset="1" stop-color="#FF817F"/>
</linearGradient>
<linearGradient id="paint17_linear_377_2556" x1="171.534" y1="191.295" x2="171.534" y2="156.749" gradientUnits="userSpaceOnUse">
<stop stop-color="#755CBB"/>
<stop offset="1" stop-color="#CCEDFF"/>
</linearGradient>
<linearGradient id="paint18_linear_377_2556" x1="212.455" y1="49.4397" x2="212.455" y2="9.68209" gradientUnits="userSpaceOnUse">
<stop stop-color="#CCEDFF"/>
<stop offset="1" stop-color="#9D68C2"/>
</linearGradient>
<linearGradient id="paint19_linear_377_2556" x1="152.881" y1="88.0965" x2="152.881" y2="21.3486" gradientUnits="userSpaceOnUse">
<stop stop-color="#CCEDFF"/>
<stop offset="1" stop-color="#9D68C2"/>
</linearGradient>
<linearGradient id="paint20_linear_377_2556" x1="141.754" y1="109.602" x2="141.125" y2="72.0352" gradientUnits="userSpaceOnUse">
<stop offset="0.0159875" stop-color="#FFAC8B"/>
<stop offset="1" stop-color="#FF9595"/>
</linearGradient>
<linearGradient id="paint21_linear_377_2556" x1="149.868" y1="99.3225" x2="135.626" y2="80.627" gradientUnits="userSpaceOnUse">
<stop stop-color="#FF817F"/>
<stop offset="1" stop-color="#CF6074"/>
</linearGradient>
<linearGradient id="paint22_linear_377_2556" x1="141.701" y1="88.2944" x2="141.405" y2="70.6428" gradientUnits="userSpaceOnUse">
<stop stop-color="#FFA795"/>
<stop offset="0.984" stop-color="#FFC2A9"/>
</linearGradient>
<linearGradient id="paint23_linear_377_2556" x1="141.091" y1="93.9931" x2="134.393" y2="85.787" gradientUnits="userSpaceOnUse">
<stop stop-color="#FF817F"/>
<stop offset="1" stop-color="#CF6074"/>
</linearGradient>
<linearGradient id="paint24_linear_377_2556" x1="179.252" y1="149.213" x2="179.252" y2="85.7598" gradientUnits="userSpaceOnUse">
<stop stop-color="#776D7E"/>
<stop offset="1" stop-color="#9D68C2"/>
</linearGradient>
<linearGradient id="paint25_linear_377_2556" x1="207.901" y1="112.056" x2="207.901" y2="107.027" gradientUnits="userSpaceOnUse">
<stop stop-color="#776D7E"/>
<stop offset="1" stop-color="#9D68C2"/>
</linearGradient>
<linearGradient id="paint26_linear_377_2556" x1="188.184" y1="47.1946" x2="188.184" y2="10.4616" gradientUnits="userSpaceOnUse">
<stop stop-color="#1F77D1"/>
<stop offset="1" stop-color="#0686C9"/>
</linearGradient>
<linearGradient id="paint27_linear_377_2556" x1="190.971" y1="41.5733" x2="190.971" y2="5.03614" gradientUnits="userSpaceOnUse">
<stop stop-color="#1F77D1"/>
<stop offset="1" stop-color="#0686C9"/>
</linearGradient>
<linearGradient id="paint28_linear_377_2556" x1="167.536" y1="397.242" x2="167.536" y2="147.504" gradientUnits="userSpaceOnUse">
<stop stop-color="#8642A0"/>
<stop offset="1" stop-color="#6456C0"/>
</linearGradient>
<linearGradient id="paint29_linear_377_2556" x1="131.581" y1="161.153" x2="131.581" y2="147.504" gradientUnits="userSpaceOnUse">
<stop stop-color="#755CBB"/>
<stop offset="1" stop-color="#CCEDFF"/>
</linearGradient>
<linearGradient id="paint30_linear_377_2556" x1="168.521" y1="207.654" x2="168.521" y2="170.507" gradientUnits="userSpaceOnUse">
<stop stop-color="#755CBB"/>
<stop offset="1" stop-color="#CCEDFF"/>
</linearGradient>
<linearGradient id="paint31_linear_377_2556" x1="153.476" y1="191.295" x2="153.476" y2="128.651" gradientUnits="userSpaceOnUse">
<stop stop-color="#D5CDF8"/>
<stop offset="1" stop-color="#F3EDFB"/>
</linearGradient>
<linearGradient id="paint32_linear_377_2556" x1="118.182" y1="277.304" x2="118.182" y2="157.915" gradientUnits="userSpaceOnUse">
<stop stop-color="#755CBB"/>
<stop offset="1" stop-color="#CCEDFF"/>
</linearGradient>
<linearGradient id="paint33_linear_377_2556" x1="182.04" y1="185.176" x2="182.04" y2="144.327" gradientUnits="userSpaceOnUse">
<stop stop-color="#D5CDF8"/>
<stop offset="1" stop-color="#F3EDFB"/>
</linearGradient>
<linearGradient id="paint34_linear_377_2556" x1="197.133" y1="304.685" x2="193.299" y2="213.389" gradientUnits="userSpaceOnUse">
<stop stop-color="#9E68B3"/>
<stop offset="1" stop-color="#846BC8"/>
</linearGradient>
<linearGradient id="paint35_linear_377_2556" x1="206.931" y1="265.295" x2="206.007" y2="243.285" gradientUnits="userSpaceOnUse">
<stop stop-color="#9E8CEF"/>
<stop offset="1" stop-color="#CCB1EE"/>
</linearGradient>
<linearGradient id="paint36_linear_377_2556" x1="216.811" y1="274.095" x2="214.634" y2="222.256" gradientUnits="userSpaceOnUse">
<stop stop-color="#9E68B3"/>
<stop offset="1" stop-color="#846BC8"/>
</linearGradient>
<linearGradient id="paint37_linear_377_2556" x1="182.498" y1="270.059" x2="181.514" y2="246.623" gradientUnits="userSpaceOnUse">
<stop stop-color="#9E8CEF"/>
<stop offset="1" stop-color="#CCB1EE"/>
</linearGradient>
<linearGradient id="paint38_linear_377_2556" x1="173.183" y1="281.642" x2="171.166" y2="233.605" gradientUnits="userSpaceOnUse">
<stop stop-color="#9E68B3"/>
<stop offset="1" stop-color="#846BC8"/>
</linearGradient>
<linearGradient id="paint39_linear_377_2556" x1="171.528" y1="397.242" x2="171.528" y2="247.794" gradientUnits="userSpaceOnUse">
<stop stop-color="#755CBB"/>
<stop offset="1" stop-color="#CCEDFF"/>
</linearGradient>
<linearGradient id="paint40_linear_377_2556" x1="84.3417" y1="417.221" x2="101.359" y2="281.727" gradientUnits="userSpaceOnUse">
<stop stop-color="#2E33A0"/>
<stop offset="1" stop-color="#0665A5"/>
</linearGradient>
<linearGradient id="paint41_linear_377_2556" x1="81.9747" y1="417.221" x2="98.992" y2="281.727" gradientUnits="userSpaceOnUse">
<stop stop-color="#1852A0"/>
<stop offset="1" stop-color="#067ED3"/>
</linearGradient>
<linearGradient id="paint42_linear_377_2556" x1="80.4235" y1="408.836" x2="91.0753" y2="324.026" gradientUnits="userSpaceOnUse">
<stop stop-color="#459FFF"/>
<stop offset="1" stop-color="#A96DFF"/>
</linearGradient>
<linearGradient id="paint43_linear_377_2556" x1="60.854" y1="392.768" x2="64.6977" y2="362.165" gradientUnits="userSpaceOnUse">
<stop stop-color="#755CBB"/>
<stop offset="1" stop-color="#CCEDFF"/>
</linearGradient>
<linearGradient id="paint44_linear_377_2556" x1="89.1999" y1="416.068" x2="89.1999" y2="311.114" gradientUnits="userSpaceOnUse">
<stop stop-color="#755CBB"/>
<stop offset="1" stop-color="#CCEDFF"/>
</linearGradient>
<linearGradient id="paint45_linear_377_2556" x1="143.725" y1="412.633" x2="143.725" y2="357.235" gradientUnits="userSpaceOnUse">
<stop offset="0.0159875" stop-color="#FFC2A9"/>
<stop offset="1" stop-color="#FF9595"/>
</linearGradient>
<linearGradient id="paint46_linear_377_2556" x1="154.183" y1="155.054" x2="154.183" y2="128.651" gradientUnits="userSpaceOnUse">
<stop stop-color="#755CBB"/>
<stop offset="1" stop-color="#CCEDFF"/>
</linearGradient>
<linearGradient id="paint47_linear_377_2556" x1="176.669" y1="163.055" x2="176.669" y2="144.327" gradientUnits="userSpaceOnUse">
<stop stop-color="#755CBB"/>
<stop offset="1" stop-color="#CCEDFF"/>
</linearGradient>
<linearGradient id="paint48_linear_377_2556" x1="119.641" y1="167.201" x2="119.641" y2="147.543" gradientUnits="userSpaceOnUse">
<stop stop-color="#755CBB"/>
<stop offset="1" stop-color="#CCEDFF"/>
</linearGradient>
<linearGradient id="paint49_linear_377_2556" x1="77.9537" y1="382.167" x2="77.9537" y2="161.133" gradientUnits="userSpaceOnUse">
<stop stop-color="#CBC1F7"/>
<stop offset="1" stop-color="#E8DCF7"/>
</linearGradient>
<linearGradient id="paint50_linear_377_2556" x1="85.8746" y1="217.807" x2="139.309" y2="217.807" gradientUnits="userSpaceOnUse">
<stop stop-color="#9D68C2"/>
<stop offset="1" stop-color="#CCEDFF"/>
</linearGradient>
<linearGradient id="paint51_linear_377_2556" x1="40.4777" y1="297.056" x2="118.803" y2="297.056" gradientUnits="userSpaceOnUse">
<stop stop-color="#9D68C2"/>
<stop offset="1" stop-color="#CCEDFF"/>
</linearGradient>
<linearGradient id="paint52_linear_377_2556" x1="21.4756" y1="342.553" x2="128.473" y2="342.553" gradientUnits="userSpaceOnUse">
<stop stop-color="#9D68C2"/>
<stop offset="1" stop-color="#CCEDFF"/>
</linearGradient>
<linearGradient id="paint53_linear_377_2556" x1="118.864" y1="274.477" x2="118.864" y2="243.401" gradientUnits="userSpaceOnUse">
<stop stop-color="#CCEDFF"/>
<stop offset="1" stop-color="#755CBB"/>
</linearGradient>
<linearGradient id="paint54_linear_377_2556" x1="46.7221" y1="291.153" x2="80.6417" y2="291.153" gradientUnits="userSpaceOnUse">
<stop stop-color="#9D68C2"/>
<stop offset="1" stop-color="#CCEDFF"/>
</linearGradient>
<linearGradient id="paint55_linear_377_2556" x1="99.1555" y1="365.073" x2="120.813" y2="365.073" gradientUnits="userSpaceOnUse">
<stop stop-color="#755CBB"/>
<stop offset="1" stop-color="#CCEDFF"/>
</linearGradient>
<linearGradient id="paint56_linear_377_2556" x1="341.111" y1="280.917" x2="369.848" y2="280.917" gradientUnits="userSpaceOnUse">
<stop stop-color="#B31A8F"/>
<stop offset="1" stop-color="#92117E"/>
</linearGradient>
<linearGradient id="paint57_linear_377_2556" x1="355.475" y1="274.052" x2="355.475" y2="176.175" gradientUnits="userSpaceOnUse">
<stop stop-color="#9D68C2"/>
<stop offset="1" stop-color="#CCEDFF"/>
</linearGradient>
<linearGradient id="paint58_linear_377_2556" x1="306.74" y1="284.072" x2="306.74" y2="279.031" gradientUnits="userSpaceOnUse">
<stop stop-color="#836CEB"/>
<stop offset="1" stop-color="#C3A4EB"/>
</linearGradient>
<linearGradient id="paint59_linear_377_2556" x1="261.211" y1="209.191" x2="270.275" y2="209.191" gradientUnits="userSpaceOnUse">
<stop stop-color="#B31A8F"/>
<stop offset="1" stop-color="#92117E"/>
</linearGradient>
<linearGradient id="paint60_linear_377_2556" x1="335.411" y1="199.392" x2="335.411" y2="181.032" gradientUnits="userSpaceOnUse">
<stop stop-color="#B31A8F"/>
<stop offset="1" stop-color="#FE117E"/>
</linearGradient>
<linearGradient id="paint61_linear_377_2556" x1="313.633" y1="271.083" x2="322.664" y2="271.083" gradientUnits="userSpaceOnUse">
<stop stop-color="#B31A8F"/>
<stop offset="1" stop-color="#92117E"/>
</linearGradient>
<linearGradient id="paint62_linear_377_2556" x1="307.375" y1="297.365" x2="307.375" y2="270.779" gradientUnits="userSpaceOnUse">
<stop offset="0.0159875" stop-color="#FFC2A9"/>
<stop offset="1" stop-color="#FF9595"/>
</linearGradient>
<linearGradient id="paint63_linear_377_2556" x1="294.951" y1="281.961" x2="294.951" y2="195.054" gradientUnits="userSpaceOnUse">
<stop offset="0.0159875" stop-color="#FFC2A9"/>
<stop offset="1" stop-color="#FF9595"/>
</linearGradient>
<linearGradient id="paint64_linear_377_2556" x1="305.002" y1="253.187" x2="305.002" y2="182.34" gradientUnits="userSpaceOnUse">
<stop stop-color="#B31A8F"/>
<stop offset="1" stop-color="#FE117E"/>
</linearGradient>
<linearGradient id="paint65_linear_377_2556" x1="357.455" y1="397.18" x2="357.455" y2="170.832" gradientUnits="userSpaceOnUse">
<stop stop-color="#B31A8F"/>
<stop offset="1" stop-color="#FE117E"/>
</linearGradient>
<linearGradient id="paint66_linear_377_2556" x1="300.229" y1="251.297" x2="300.229" y2="222.534" gradientUnits="userSpaceOnUse">
<stop offset="0.0159875" stop-color="#FFA58B"/>
<stop offset="1" stop-color="#FF9595"/>
</linearGradient>
<linearGradient id="paint67_linear_377_2556" x1="268.917" y1="254.913" x2="268.917" y2="227.249" gradientUnits="userSpaceOnUse">
<stop offset="0.0159875" stop-color="#FFA58B"/>
<stop offset="1" stop-color="#FF9595"/>
</linearGradient>
<linearGradient id="paint68_linear_377_2556" x1="277.183" y1="261.863" x2="276.091" y2="256.177" gradientUnits="userSpaceOnUse">
<stop stop-color="#E1616A"/>
<stop offset="1" stop-color="#FF8883"/>
</linearGradient>
<linearGradient id="paint69_linear_377_2556" x1="311.137" y1="280.921" x2="311.137" y2="238.507" gradientUnits="userSpaceOnUse">
<stop offset="0.0159875" stop-color="#FFA58B"/>
<stop offset="1" stop-color="#FF9595"/>
</linearGradient>
<linearGradient id="paint70_linear_377_2556" x1="306.874" y1="405.71" x2="306.874" y2="280.563" gradientUnits="userSpaceOnUse">
<stop stop-color="#9E8CEF"/>
<stop offset="1" stop-color="#DAC7F3"/>
</linearGradient>
<linearGradient id="paint71_linear_377_2556" x1="304.589" y1="404.367" x2="304.589" y2="306.469" gradientUnits="userSpaceOnUse">
<stop stop-color="#CCEDFF"/>
<stop offset="1" stop-color="#755CBB"/>
</linearGradient>
<linearGradient id="paint72_linear_377_2556" x1="337.058" y1="320.241" x2="337.058" y2="284.006" gradientUnits="userSpaceOnUse">
<stop stop-color="#9E8CEF"/>
<stop offset="1" stop-color="#DAC7F3"/>
</linearGradient>
<linearGradient id="paint73_linear_377_2556" x1="323.792" y1="365.161" x2="323.792" y2="289.32" gradientUnits="userSpaceOnUse">
<stop stop-color="#4A3283"/>
<stop offset="1" stop-color="#552C88"/>
</linearGradient>
<linearGradient id="paint74_linear_377_2556" x1="325.707" y1="374.48" x2="325.707" y2="293.036" gradientUnits="userSpaceOnUse">
<stop stop-color="#8642A0"/>
<stop offset="1" stop-color="#6456C0"/>
</linearGradient>
<linearGradient id="paint75_linear_377_2556" x1="298.107" y1="295.673" x2="354.919" y2="295.673" gradientUnits="userSpaceOnUse">
<stop stop-color="#D5CDF8"/>
<stop offset="1" stop-color="#F3EDFB"/>
</linearGradient>
<linearGradient id="paint76_linear_377_2556" x1="323.894" y1="293.035" x2="323.894" y2="288.48" gradientUnits="userSpaceOnUse">
<stop stop-color="#8642A0"/>
<stop offset="1" stop-color="#6456C0"/>
</linearGradient>
<linearGradient id="paint77_linear_377_2556" x1="332.034" y1="338.377" x2="332.034" y2="302.145" gradientUnits="userSpaceOnUse">
<stop stop-color="#B31A8F"/>
<stop offset="1" stop-color="#FE117E"/>
</linearGradient>
<linearGradient id="paint78_linear_377_2556" x1="312.853" y1="374.48" x2="312.853" y2="293.036" gradientUnits="userSpaceOnUse">
<stop stop-color="#B1D4F7"/>
<stop offset="1" stop-color="#637EC9"/>
</linearGradient>
<linearGradient id="paint79_linear_377_2556" x1="315.224" y1="300.233" x2="315.224" y2="292.153" gradientUnits="userSpaceOnUse">
<stop stop-color="#9F90FF"/>
<stop offset="1" stop-color="#755CBB"/>
</linearGradient>
<linearGradient id="paint80_linear_377_2556" x1="276.774" y1="331.477" x2="276.774" y2="321.097" gradientUnits="userSpaceOnUse">
<stop stop-color="#836CEB"/>
<stop offset="1" stop-color="#726BA6"/>
</linearGradient>
<linearGradient id="paint81_linear_377_2556" x1="299.454" y1="362.65" x2="299.454" y2="287.425" gradientUnits="userSpaceOnUse">
<stop offset="0.0159875" stop-color="#FFC2A9"/>
<stop offset="1" stop-color="#FF9595"/>
</linearGradient>
<linearGradient id="paint82_linear_377_2556" x1="277.809" y1="329.345" x2="277.809" y2="286.146" gradientUnits="userSpaceOnUse">
<stop stop-color="#B9ACF4"/>
<stop offset="1" stop-color="#E1D1F5"/>
</linearGradient>
<linearGradient id="paint83_linear_377_2556" x1="358.47" y1="354.73" x2="358.47" y2="334.243" gradientUnits="userSpaceOnUse">
<stop offset="0.0159875" stop-color="#FFC2A9"/>
<stop offset="1" stop-color="#FF9595"/>
</linearGradient>
<linearGradient id="paint84_linear_377_2556" x1="262.735" y1="204.085" x2="340.407" y2="204.085" gradientUnits="userSpaceOnUse">
<stop stop-color="#9D68C2"/>
<stop offset="1" stop-color="#CCEDFF"/>
</linearGradient>
<linearGradient id="paint85_linear_377_2556" x1="313.227" y1="229.404" x2="347.089" y2="229.404" gradientUnits="userSpaceOnUse">
<stop stop-color="#9D68C2"/>
<stop offset="1" stop-color="#CCEDFF"/>
</linearGradient>
<linearGradient id="paint86_linear_377_2556" x1="329.948" y1="268.373" x2="332.372" y2="241.881" gradientUnits="userSpaceOnUse">
<stop offset="0.0159875" stop-color="#FFAC8B"/>
<stop offset="1" stop-color="#FF9595"/>
</linearGradient>
<linearGradient id="paint87_linear_377_2556" x1="325.034" y1="259.723" x2="337.019" y2="247.506" gradientUnits="userSpaceOnUse">
<stop stop-color="#FF817F"/>
<stop offset="1" stop-color="#CF6074"/>
</linearGradient>
<linearGradient id="paint88_linear_377_2556" x1="331.201" y1="251.171" x2="332.143" y2="240.873" gradientUnits="userSpaceOnUse">
<stop stop-color="#FFA795"/>
<stop offset="0.984" stop-color="#FFC2A9"/>
</linearGradient>
<linearGradient id="paint89_linear_377_2556" x1="301.428" y1="186.06" x2="331.296" y2="186.06" gradientUnits="userSpaceOnUse">
<stop stop-color="#9D68C2"/>
<stop offset="1" stop-color="#CCEDFF"/>
</linearGradient>
<linearGradient id="paint90_linear_377_2556" x1="296.868" y1="261.815" x2="296.083" y2="257.725" gradientUnits="userSpaceOnUse">
<stop offset="0.0159875" stop-color="#FFA58B"/>
<stop offset="1" stop-color="#FF9595"/>
</linearGradient>
<linearGradient id="paint91_linear_377_2556" x1="277.649" y1="269.044" x2="277.162" y2="266.505" gradientUnits="userSpaceOnUse">
<stop offset="0.0159875" stop-color="#FFA58B"/>
<stop offset="1" stop-color="#FF9595"/>
</linearGradient>
<linearGradient id="paint92_linear_377_2556" x1="273.468" y1="317.886" x2="291.2" y2="317.886" gradientUnits="userSpaceOnUse">
<stop stop-color="#CCEDFF"/>
<stop offset="1" stop-color="#9D68C2"/>
</linearGradient>
</defs>
</svg>
