<svg width="118" height="117" viewBox="0 0 118 117" fill="none" xmlns="http://www.w3.org/2000/svg">
<g filter="url(#filter0_dd_207_1762)">
<circle cx="59.1115" cy="58.3694" r="42.3694" fill="#CFD8DC"/>
<circle cx="59.1115" cy="58.3694" r="42.3694" fill="white"/>
<circle cx="59.1115" cy="58.3694" r="40.8694" stroke="#F3EEFD" stroke-width="3"/>
</g>
<path d="M35.1128 78C35.0008 78 34.8928 77.982 34.7888 77.946C34.6008 77.878 34.4508 77.762 34.3388 77.598C34.2228 77.434 34.1648 77.252 34.1648 77.052V69.966C34.1648 69.706 34.2568 69.484 34.4408 69.3C34.6248 69.112 34.8488 69.018 35.1128 69.018C35.3728 69.018 35.5948 69.112 35.7788 69.3C35.9628 69.484 36.0548 69.706 36.0548 69.966V74.442L40.2908 69.36C40.4188 69.208 40.5788 69.106 40.7708 69.054C40.9628 69.002 41.1528 69.01 41.3408 69.078C41.5288 69.146 41.6788 69.26 41.7908 69.42C41.9068 69.584 41.9648 69.766 41.9648 69.966V77.052C41.9648 77.316 41.8728 77.54 41.6888 77.724C41.5008 77.908 41.2768 78 41.0168 78C40.7568 78 40.5348 77.908 40.3508 77.724C40.1668 77.54 40.0748 77.316 40.0748 77.052V72.576L35.8388 77.658C35.6468 77.886 35.4048 78 35.1128 78ZM50.4742 69.966C50.4742 69.706 50.3822 69.484 50.1982 69.3C50.0102 69.112 49.7862 69.018 49.5262 69.018H44.8042C44.5402 69.018 44.3162 69.112 44.1322 69.3C43.9482 69.484 43.8562 69.706 43.8562 69.966V77.052C43.8562 77.316 43.9482 77.54 44.1322 77.724C44.3162 77.908 44.5402 78 44.8042 78C45.0642 78 45.2862 77.908 45.4702 77.724C45.6542 77.54 45.7462 77.316 45.7462 77.052V70.908H49.5262C49.7862 70.908 50.0102 70.816 50.1982 70.632C50.3822 70.448 50.4742 70.226 50.4742 69.966ZM57.5709 72.33C57.5709 72.718 57.4309 73.052 57.1509 73.332C56.8749 73.608 56.5409 73.746 56.1489 73.746H53.5509V70.908H56.1489C56.5409 70.908 56.8749 71.048 57.1509 71.328C57.4309 71.604 57.5709 71.938 57.5709 72.33ZM52.6089 78C52.8689 78 53.0909 77.908 53.2749 77.724C53.4589 77.54 53.5509 77.316 53.5509 77.052V75.636H56.1489C57.0609 75.636 57.8409 75.312 58.4889 74.664C59.1369 74.02 59.4609 73.242 59.4609 72.33C59.4609 71.418 59.1369 70.638 58.4889 69.99C57.8409 69.342 57.0609 69.018 56.1489 69.018H52.6089C52.3449 69.018 52.1209 69.112 51.9369 69.3C51.7529 69.484 51.6609 69.706 51.6609 69.966V77.052C51.6609 77.316 51.7529 77.54 51.9369 77.724C52.1209 77.908 52.3449 78 52.6089 78ZM63.5034 72.078L64.6314 74.334H62.3754L63.5034 72.078ZM59.5374 77.898C59.7694 78.014 60.0094 78.03 60.2574 77.946C60.5054 77.866 60.6874 77.708 60.8034 77.472L61.4274 76.224H65.5734L66.2034 77.472C66.2834 77.636 66.4014 77.766 66.5574 77.862C66.7094 77.954 66.8734 78 67.0494 78C67.1974 78 67.3374 77.966 67.4694 77.898C67.7014 77.782 67.8594 77.6 67.9434 77.352C68.0274 77.104 68.0094 76.864 67.8894 76.632L64.3494 69.54C64.2694 69.38 64.1534 69.252 64.0014 69.156C63.8494 69.064 63.6834 69.018 63.5034 69.018C63.3234 69.018 63.1574 69.064 63.0054 69.156C62.8534 69.252 62.7374 69.38 62.6574 69.54L59.1114 76.632C58.9954 76.864 58.9794 77.104 59.0634 77.352C59.1434 77.6 59.3014 77.782 59.5374 77.898ZM69.4848 70.908V77.052C69.4848 77.316 69.5768 77.54 69.7608 77.724C69.9488 77.908 70.1728 78 70.4328 78C70.6928 78 70.9148 77.908 71.0988 77.724C71.2828 77.54 71.3748 77.316 71.3748 77.052V70.908H73.3848C73.6448 70.908 73.8688 70.816 74.0568 70.632C74.2408 70.448 74.3328 70.226 74.3328 69.966C74.3328 69.706 74.2408 69.484 74.0568 69.3C73.8688 69.112 73.6448 69.018 73.3848 69.018H67.4808C67.2168 69.018 66.9928 69.112 66.8088 69.3C66.6248 69.484 66.5328 69.706 66.5328 69.966C66.5328 70.226 66.6248 70.448 66.8088 70.632C66.9928 70.816 67.2168 70.908 67.4808 70.908H69.4848ZM77.4103 76.11V73.272H80.0083C80.4003 73.272 80.7343 73.412 81.0103 73.692C81.2903 73.968 81.4303 74.302 81.4303 74.694C81.4303 75.082 81.2903 75.416 81.0103 75.696C80.7343 75.972 80.4003 76.11 80.0083 76.11H77.4103ZM77.4103 71.382V69.966C77.4103 69.706 77.3183 69.484 77.1343 69.3C76.9503 69.112 76.7283 69.018 76.4683 69.018C76.2043 69.018 75.9803 69.112 75.7963 69.3C75.6123 69.484 75.5203 69.706 75.5203 69.966V77.052C75.5203 77.316 75.6123 77.54 75.7963 77.724C75.9803 77.908 76.2043 78 76.4683 78H80.0083C80.9203 78 81.7003 77.676 82.3483 77.028C82.9963 76.384 83.3203 75.606 83.3203 74.694C83.3203 73.782 82.9963 73.002 82.3483 72.354C81.7003 71.706 80.9203 71.382 80.0083 71.382H77.4103Z" fill="url(#paint0_linear_207_1762)"/>
<g style="mix-blend-mode:multiply">
<path d="M66.4761 51.7688C67.6333 50.8735 67.6333 49.1264 66.4761 48.231C62.979 45.5251 59.0739 43.3922 54.9071 41.9123L54.1459 41.642C52.6896 41.1247 51.1513 42.1101 50.9542 43.6134C50.4033 47.8136 50.4033 52.1863 50.9542 56.3865C51.1513 57.8898 52.6896 58.8751 54.1459 58.3579L54.9071 58.0876C59.0739 56.6077 62.979 54.4748 66.4761 51.7688Z" fill="url(#paint1_linear_207_1762)"/>
</g>
<defs>
<filter id="filter0_dd_207_1762" x="0.742188" y="0" width="116.738" height="116.738" filterUnits="userSpaceOnUse" color-interpolation-filters="sRGB">
<feFlood flood-opacity="0" result="BackgroundImageFix"/>
<feColorMatrix in="SourceAlpha" type="matrix" values="0 0 0 0 0 0 0 0 0 0 0 0 0 0 0 0 0 0 127 0" result="hardAlpha"/>
<feOffset dx="4" dy="4"/>
<feGaussianBlur stdDeviation="6"/>
<feColorMatrix type="matrix" values="0 0 0 0 0.733333 0 0 0 0 0.764706 0 0 0 0 0.807843 0 0 0 0.6 0"/>
<feBlend mode="normal" in2="BackgroundImageFix" result="effect1_dropShadow_207_1762"/>
<feColorMatrix in="SourceAlpha" type="matrix" values="0 0 0 0 0 0 0 0 0 0 0 0 0 0 0 0 0 0 127 0" result="hardAlpha"/>
<feOffset dx="-4" dy="-4"/>
<feGaussianBlur stdDeviation="6"/>
<feColorMatrix type="matrix" values="0 0 0 0 0.992157 0 0 0 0 1 0 0 0 0 1 0 0 0 0.8 0"/>
<feBlend mode="normal" in2="effect1_dropShadow_207_1762" result="effect2_dropShadow_207_1762"/>
<feBlend mode="normal" in="SourceGraphic" in2="effect2_dropShadow_207_1762" result="shape"/>
</filter>
<linearGradient id="paint0_linear_207_1762" x1="33" y1="74.5" x2="84" y2="74.5" gradientUnits="userSpaceOnUse">
<stop stop-color="#7F28D9"/>
<stop offset="1" stop-color="#7427CC"/>
</linearGradient>
<linearGradient id="paint1_linear_207_1762" x1="50.541" y1="50" x2="67.344" y2="50" gradientUnits="userSpaceOnUse">
<stop stop-color="#7F28D9"/>
<stop offset="1" stop-color="#7427CC"/>
</linearGradient>
</defs>
</svg>
