<svg width="256" height="211" viewBox="0 0 256 211" fill="none" xmlns="http://www.w3.org/2000/svg">
<path d="M28.1705 115.344C39.2404 92.6777 48.6058 73.5471 65.8592 75.0631C83.1127 76.5791 71.1266 94.3996 80.2229 99.6185C89.3192 104.837 116.846 97.8033 125.162 118.115C134.425 140.711 77.5538 202.021 40.6587 208.755C-12.0488 205.014 1.5059 178.078 3.76297 151.89C10.5638 131.353 18.8244 127.947 28.1705 115.344Z" fill="#B3D4FF"/>
<path d="M28.1705 115.344C39.2404 92.6777 48.6058 73.5471 65.8592 75.0631C83.1127 76.5791 71.1266 94.3996 80.2229 99.6185C89.3192 104.837 116.846 97.8033 125.162 118.115C134.425 140.711 77.5538 202.021 40.6587 208.755C-12.0488 205.014 1.5059 178.078 3.76297 151.89C10.5638 131.353 18.8244 127.947 28.1705 115.344Z" fill="#FFD7D8" fill-opacity="0.49"/>
<path d="M102.864 177.945C61.0489 181.251 51.9863 181.942 39.9064 153.387C39.9064 153.387 37.168 129.465 37.168 110.366C37.168 91.2681 4.27363 54.3568 26.6678 22.6793C51.5709 -12.5792 181.197 15.3338 225.985 70.7006C278.393 135.433 236.764 198.054 205.264 205.215C170.046 213.295 145.794 174.548 102.864 177.945Z" fill="#B3D4FF"/>
<path d="M102.864 177.945C61.0489 181.251 51.9863 181.942 39.9064 153.387C39.9064 153.387 37.168 129.465 37.168 110.366C37.168 91.2681 4.27363 54.3568 26.6678 22.6793C51.5709 -12.5792 181.197 15.3338 225.985 70.7006C278.393 135.433 236.764 198.054 205.264 205.215C170.046 213.295 145.794 174.548 102.864 177.945Z" fill="#B3D4FF"/>
<path d="M234.535 99.7154L229.331 99.0727C226.451 97.9708 223.198 96.5935 220.69 94.4817C214.65 89.248 212.327 83.8307 212.698 82.6371C213.07 81.4434 221.34 82.7289 227.008 86.6771C232.398 90.4417 234.07 97.1445 234.535 99.7154Z" fill="url(#paint0_linear_377_1269)"/>
<path d="M237.415 95.6754C237.415 95.6754 236.765 91.7271 237.88 89.3399C238.995 86.9526 242.99 84.5653 243.548 84.9325C244.013 85.3916 237.415 95.6754 237.415 95.6754Z" fill="url(#paint1_linear_377_1269)"/>
<path opacity="0.82" d="M212.699 82.5453C212.699 82.5453 224.407 87.228 228.031 91.0844C231.655 94.849 233.514 98.7972 233.514 98.7972C233.514 98.7972 219.204 98.6136 212.699 82.5453Z" fill="url(#paint2_linear_377_1269)"/>
<path d="M242.527 94.3899C240.297 97.0527 238.066 98.889 236.673 99.899L235.558 99.7154L235.929 99.3481C235.929 99.3481 232.77 96.5936 233.049 90.0744C233.327 83.6471 240.482 72.7206 242.527 73.9143C244.385 75.1079 246.244 89.9826 242.527 94.3899Z" fill="url(#paint3_linear_377_1269)"/>
<path opacity="0.82" d="M236.578 98.9809C236.578 98.9809 237.786 81.6271 241.968 74.1897C241.875 74.1897 249.68 91.3599 236.578 98.9809Z" fill="url(#paint4_linear_377_1269)"/>
<path d="M126.748 115.508C126.748 115.508 126.469 107.428 121.823 104.949C121.823 104.949 120.708 114.774 126.748 115.508Z" fill="url(#paint5_linear_377_1269)"/>
<path d="M62.444 70.1497C62.444 70.1497 59.2846 79.6989 50.457 89.9826C50.457 89.9826 61.3289 91.6353 65.2316 97.3281C65.2316 97.3281 67.5547 89.7989 73.6875 85.7589C73.7805 85.7589 64.3024 77.4034 62.444 70.1497Z" fill="#FE9083"/>
<path d="M61.7031 72.1697C61.7031 72.1697 62.2607 87.4117 68.7652 90.6253C68.7652 90.6253 71.367 87.228 73.783 85.7589C73.783 85.7589 65.6058 81.3516 62.5394 70.2415L61.7031 72.1697Z" fill="#CB4D7A"/>
<path d="M215.488 175.833L248.847 98.6136C248.847 98.6136 249.591 100.634 248.847 102.47C236.767 131.577 217.811 175.925 217.811 175.925L215.488 175.833Z" fill="#9B5ED7"/>
<path d="M248.847 98.5218L145.518 102.47L112.902 176.752L215.488 175.833L248.847 98.5218Z" fill="#744CA2"/>
<path d="M147.563 105.684L243.179 101.919L212.236 172.436L121.266 169.314L147.563 105.684Z" fill="#72CEF3"/>
<path d="M147.097 82.4534C147.097 82.4534 145.982 84.5653 141.429 91.0844C136.783 97.6036 132.973 100.817 132.044 102.195C131.114 103.572 125.725 115.967 125.725 115.967C125.725 115.967 120.057 112.111 121.822 104.949C121.822 104.949 122.937 103.021 122.844 101.368C122.751 99.6236 117.641 92.2781 117.641 89.7071C117.641 87.1362 123.216 80.8925 124.61 77.587C126.004 74.1897 128.141 69.507 128.884 69.4151C129.628 69.2315 131.114 72.537 130.836 75.2916C130.464 78.0461 126.654 80.5252 125.539 82.178C124.424 83.8307 124.61 84.7489 124.61 84.7489C124.61 84.7489 129.999 82.178 131.951 79.9743C133.902 77.7707 134.831 76.2097 134.831 76.2097C134.831 76.2097 136.783 71.8943 139.013 67.8542C141.336 63.8142 142.544 62.7124 142.915 62.2533C143.287 61.7942 144.867 61.886 145.053 62.2533C145.238 62.6205 143.752 67.3033 142.822 69.3233C142.358 70.4252 141.15 72.3534 140.221 74.0061C139.291 75.567 138.548 76.8525 138.548 77.0361C138.641 77.4952 140.314 76.3934 141.429 76.7607C142.172 77.0361 144.03 77.8625 144.123 79.3316C144.123 79.6989 143.938 80.0661 143.752 80.4334C144.03 80.158 144.402 79.7907 144.681 79.7907C146.168 79.7907 147.097 80.8925 147.097 82.4534Z" fill="url(#paint6_linear_377_1269)"/>
<path d="M143.006 83.5553L138.453 87.6871C124.422 92.9208 125.816 84.0144 125.816 84.0144C127.767 81.8107 134.829 76.2098 134.829 76.2098C134.829 76.2098 136.78 71.8943 139.011 67.8542C141.334 63.8142 142.542 62.7124 142.913 62.2533C143.285 61.7942 144.865 61.886 145.05 62.2533C145.236 62.6205 143.75 67.3033 142.82 69.3233C142.356 70.4252 141.148 72.3534 140.219 74.0061C138.825 74.7406 136.78 75.7507 136.78 76.1179C136.687 76.577 137.895 78.2298 137.895 78.2298L141.334 80.9843C141.334 80.9843 140.683 82.5453 140.59 82.6371C140.404 82.6371 143.006 83.5553 143.006 83.5553Z" fill="#FE9083"/>
<path d="M128.884 69.2315C128.884 69.2315 127.583 74.9243 130.185 76.9443C130.185 76.9443 131.393 75.2916 130.835 72.6288C130.185 70.0579 128.884 69.2315 128.884 69.2315Z" fill="#E4688E"/>
<path d="M88.0898 144.339C88.0898 144.339 112.9 122.67 121.821 104.949C121.821 104.949 121.635 113.764 126.745 115.508C126.745 115.508 107.232 157.102 102.4 163.254C102.4 163.254 92.4572 158.388 88.0898 144.339Z" fill="url(#paint7_linear_377_1269)"/>
<path d="M136.968 73.4552C136.968 73.4552 136.504 75.9343 136.039 77.8625C136.039 77.8625 137.061 78.5971 138.455 77.8625C139.849 77.128 140.221 73.9143 140.128 72.6288C139.942 71.3433 136.968 73.4552 136.968 73.4552Z" fill="#FEA297"/>
<path d="M139.478 76.577C139.478 76.577 140.871 73.2715 140.314 70.8842C140.314 70.8842 139.663 70.2415 138.734 69.6906C138.734 69.6906 134.088 69.2315 128.977 69.2315C128.977 69.2315 128.327 69.8742 129.349 71.8024C130.278 73.7306 134.088 73.6388 136.318 73.3634C139.106 73.0879 139.849 72.9043 139.849 72.9043C139.849 72.9043 139.849 74.6488 139.478 76.577Z" fill="#FEB1A8"/>
<path d="M140.315 76.4852C140.315 76.4852 136.319 78.6889 134.089 81.5353C134.089 81.5353 133.81 84.4735 136.784 82.9125C140.408 80.9844 144.31 79.148 144.31 79.148C144.31 79.148 144.125 76.6689 140.315 76.4852Z" fill="#FEB1A8"/>
<path d="M144.031 79.2398C144.031 79.2398 139.385 82.0862 138.641 82.9125C137.898 83.7389 140.035 84.9325 142.823 84.1062C145.61 83.3716 146.725 81.5353 146.725 81.5353C146.725 81.5353 147.19 78.4134 144.031 79.2398Z" fill="#FEB1A8"/>
<path d="M124.609 85.0244C124.237 84.198 126.374 89.0644 126.746 93.2881C126.746 93.2881 128.326 86.9526 125.259 82.5453C125.259 82.5453 124.237 84.198 124.609 85.0244Z" fill="#FE9083"/>
<path d="M128.699 91.6353C128.699 91.6353 130.929 87.0444 137.527 87.7789C137.527 87.7789 131.487 90.2581 128.699 91.6353Z" fill="#FE9083"/>
<path d="M99.0548 41.0431C99.0548 41.0431 103.329 34.7076 102.307 30.5757C101.378 26.4439 97.7539 25.9848 97.7539 25.9848C97.7539 25.9848 99.0548 37.6458 99.0548 41.0431Z" fill="url(#paint8_linear_377_1269)"/>
<path d="M96.6382 29.5657C100.634 32.4121 98.4037 55.9178 99.147 58.0296C99.7975 60.1414 102.121 62.0696 102.399 64.3651C102.771 66.6606 95.9877 87.7789 87.8106 89.7071C79.6334 91.6353 67.5536 84.198 62.5358 70.2415C57.518 56.285 61.8853 39.3904 65.9739 34.1567C70.0625 28.923 88.7398 23.8729 96.6382 29.5657Z" fill="url(#paint9_linear_377_1269)"/>
<path d="M99.0544 39.4822L96.7314 40.1249C96.7314 40.1249 91.6207 37.1867 81.9568 35.2585C69.5052 32.7794 66.253 47.8377 65.8813 50.6841L64.3945 42.6958L64.5804 33.2385L81.9568 29.5657L97.1031 33.5139L98.8686 35.3503C98.7757 35.2585 98.9615 37.9212 99.0544 39.4822Z" fill="#E4688E"/>
<path d="M96.639 40.1249C95.8027 35.7176 91.9929 32.2285 91.9929 32.2285C91.4354 32.4121 90.8778 32.5957 90.2274 32.6876C87.4397 33.2385 84.0945 33.0548 78.6122 32.6876C73.8731 32.4121 70.0633 34.1567 68.112 34.7076C68.019 34.7076 67.9261 34.7994 67.8332 34.7994C65.696 35.3503 66.904 36.544 66.904 36.544C66.904 36.544 69.5058 41.3185 66.9969 46.7359C65.4172 50.0413 65.3243 54.6323 65.4172 57.7541C65.5102 59.6823 65.696 61.0596 65.696 61.0596L63.3729 59.9578C63.3729 59.9578 59.8419 55.6423 57.2401 51.5104C56.3109 49.9495 55.3817 48.4804 54.917 47.2868C54.0807 45.0831 53.3374 43.2467 53.0586 41.6858C52.7798 40.1249 52.8728 38.9312 53.6161 37.9212C55.1029 35.993 64.488 33.1466 64.488 33.1466C64.488 33.1466 62.3508 33.0548 61.3287 30.6675C60.3065 28.2802 62.072 23.8729 62.072 23.8729C62.165 28.4639 64.7668 31.8612 64.9526 32.1366C64.9526 32.0448 64.8597 31.953 64.7668 31.7694C64.7668 31.7694 64.7668 31.7694 64.7668 31.6775C64.3951 30.8512 63.6517 29.1066 63.8376 28.2802C63.8376 28.1884 63.8376 28.1884 63.8376 28.0966C63.8376 28.0048 63.8376 28.0048 63.9305 27.913C63.9305 27.913 63.9305 27.8211 64.0234 27.8211C64.0234 27.7293 64.1163 27.7293 64.1163 27.6375C64.2092 27.5457 64.2092 27.4539 64.3022 27.4539C64.7668 27.0866 65.6031 26.6275 67.1828 25.9848H67.2757C68.8553 25.342 71.2713 24.6075 74.8024 23.5975C83.8158 20.9347 89.9486 15.3338 89.9486 15.3338C89.9486 15.3338 95.9886 16.1601 99.7984 20.1084C99.7984 20.1084 99.7984 20.1084 99.8913 20.2002C101.099 21.3938 102.028 22.9547 102.493 24.8829C104.444 32.7794 96.639 40.1249 96.639 40.1249Z" fill="url(#paint10_linear_377_1269)"/>
<path d="M94.3182 34.8912C91.1589 35.993 88.4641 34.8912 81.3091 33.5139C76.3843 32.5957 69.601 34.0648 67.8355 34.8912L66.9062 34.7076C66.9062 34.7076 70.5302 31.6775 76.756 25.893C83.0747 19.9247 92.6456 28.923 94.3182 34.8912Z" fill="url(#paint11_linear_377_1269)"/>
<path d="M73.7825 106.877C73.7825 106.877 77.3136 101.368 75.8268 96.9608C75.8268 96.9608 66.8134 91.4517 50.552 87.0444L47.5785 92.3699C47.4856 92.3699 63.3753 96.4099 73.7825 106.877Z" fill="url(#paint12_linear_377_1269)"/>
<path d="M65.5103 53.5305C65.5103 53.5305 75.7317 59.7741 77.8689 67.2115C80.0061 74.6488 77.8689 83.8307 77.8689 83.8307C77.8689 83.8307 67.4616 65.7424 66.1607 61.0596C64.8598 56.4687 65.5103 53.5305 65.5103 53.5305Z" fill="url(#paint13_linear_377_1269)"/>
<path d="M82.1439 149.665C81.5864 152.144 80.6571 154.899 79.5421 157.653C71.9225 176.66 53.8027 200.165 53.2452 200.9L56.4974 203.287C37.8201 216.968 4.68527 202.303 3.01267 192.294C1.34008 182.286 16.2622 182.628 22.5809 160.224C28.8996 137.912 30.5722 110.55 31.6873 108.346C37.0767 98.1545 48.0415 91.3599 48.0415 91.3599C62.3515 95.3999 77.8695 108.53 77.8695 108.53C77.8695 108.53 86.79 129.832 82.1439 149.665Z" fill="url(#paint14_linear_377_1269)"/>
<path opacity="0.5" d="M78.5212 110.642L77.8708 108.622C77.8708 108.622 74.3397 105.133 69.322 108.438C64.3971 111.836 57.2421 122.578 54.9191 135.433C52.596 148.288 56.3129 164.907 64.1183 172.436C64.1183 172.436 76.1053 167.386 79.4505 157.653L71.0875 134.974L78.5212 110.642Z" fill="url(#paint15_linear_377_1269)"/>
<path d="M162.613 176.752H71.8281V182.169H162.613V176.752Z" fill="#36295C"/>
<path d="M215.486 175.833V180.883L162.613 182.169V176.752L215.486 175.833Z" fill="#9B5ED7"/>
<path d="M74.8949 46.7359C74.8949 46.7359 73.7798 51.6941 74.4303 55.9178C74.4303 55.9178 82.1428 60.3251 87.0677 58.4887C87.0677 58.4887 89.3907 49.3986 87.9969 40.3085C87.9969 40.3085 85.3951 42.7876 82.8862 42.7876C80.3773 42.9713 75.6383 45.634 74.8949 46.7359Z" fill="url(#paint16_linear_377_1269)"/>
<path d="M189.191 185.933H224.223C224.223 185.933 219.112 175.742 206.661 174.823C194.302 173.813 189.191 185.933 189.191 185.933Z" fill="#36295C"/>
<path d="M224.966 172.987C225.338 174.456 221.342 175.374 220.599 175.007C220.599 175.007 224.223 179.231 224.223 180.241C224.223 180.608 223.851 180.792 223.293 180.792C222.55 180.792 221.621 180.516 221.249 180.241C221.342 180.241 221.435 180.332 221.528 180.516C221.807 180.792 222.085 181.159 221.807 181.526C221.621 181.802 220.97 181.802 220.134 181.618C219.112 181.434 217.904 181.067 217.346 180.792C215.488 179.873 212.793 177.67 212.793 177.67C212.793 177.67 207.682 178.037 204.151 179.231L205.174 177.853C206.103 177.945 209.448 177.762 211.213 178.221C212.236 178.496 217.997 182.628 217.997 182.995C217.997 183.822 214.93 184.648 208.983 180.424C208.983 180.424 198.948 185.383 193.187 185.842C185.939 186.393 181.571 184.097 181.571 184.097L168.098 184.74C168.098 184.74 172.93 178.496 176.832 176.476C176.832 176.476 210.098 169.681 214.001 170.508C218.183 171.334 224.78 172.069 224.966 172.987Z" fill="url(#paint17_linear_377_1269)"/>
<path d="M178.599 175.65C178.599 175.65 171.908 178.588 169.214 185.199C169.214 185.199 124.797 187.219 106.863 184.464C106.863 184.464 90.3227 166.743 77.9641 157.286C77.9641 157.286 74.8048 168.029 64.4904 169.498C64.4904 169.498 51.4814 156.092 56.5921 134.423C61.0523 115.508 74.8977 108.714 75.2694 108.53C75.2694 108.53 80.5659 111.56 83.1678 115.141C83.1678 115.141 83.7253 116.151 84.6545 117.987C89.3935 127.077 104.633 155.174 117.642 165.091C117.642 165.091 150.908 172.528 172.001 175.099C174.231 175.282 176.554 175.466 178.599 175.65Z" fill="url(#paint18_linear_377_1269)"/>
<path d="M178.597 175.65C178.597 175.65 171.907 178.588 169.212 185.199C169.212 185.199 124.795 187.219 106.861 184.464C106.861 184.464 90.3213 166.743 77.9626 157.286C76.4759 156.184 68.4846 160.683 68.4846 160.683C67.7412 157.47 67.2766 154.44 66.9978 151.501C65.1394 128.179 77.8697 114.315 77.8697 114.315C80.3786 114.498 83.538 117.436 83.538 117.436L84.5601 117.804C89.2991 126.894 104.538 154.99 117.547 164.907C117.547 164.907 150.813 172.344 171.907 174.915C174.23 175.282 176.553 175.466 178.597 175.65Z" fill="url(#paint19_linear_377_1269)"/>
<path d="M101.377 69.2315C101.099 68.3133 100.262 69.5988 96.0808 70.1497C91.8993 70.7006 85.4877 67.4869 85.4877 67.4869C80.6558 67.3033 75.1734 70.6088 75.1734 70.6088C71.7353 70.6088 68.6688 65.3751 66.9962 61.7942C66.1599 59.9578 65.6024 58.5805 65.6024 58.5805C64.3944 59.4987 64.5803 60.6005 64.5803 60.6005C64.952 64.4569 62.6289 70.2415 62.6289 70.2415C62.6289 70.2415 63.5581 76.9443 72.1069 84.7489C80.6558 92.5535 90.9701 90.4417 90.9701 90.4417C98.9614 86.0344 101.563 70.1497 101.377 69.2315ZM93.6648 82.0862C92.0852 82.0862 92.6427 77.7707 90.4126 77.4034C88.0895 77.0361 84.4656 82.5453 81.8638 80.8925C79.2619 79.2398 79.4478 72.2615 80.5628 71.0679C82.2354 69.2315 84.8373 69.2315 84.8373 69.2315C84.8373 69.2315 87.4391 71.6188 91.7135 72.9043C95.9879 74.1897 98.4968 71.7106 98.4968 71.7106C99.8906 77.6789 95.2445 82.0862 93.6648 82.0862Z" fill="url(#paint20_linear_377_1269)"/>
<path d="M97.8464 65.8342C97.8464 65.8342 96.3597 61.1514 93.3862 60.6923C90.4127 60.2332 87.625 65.7424 87.625 65.7424L97.8464 65.8342Z" fill="#FFB398"/>
<path d="M97.8464 65.8342C98.0323 65.4669 89.6693 65.2833 87.625 65.7424C87.625 65.7424 89.2976 67.946 92.2711 68.497C95.2446 68.9561 97.4747 66.8442 97.8464 65.8342Z" fill="url(#paint21_linear_377_1269)"/>
<path d="M90.8758 68.1297C90.8758 68.1297 89.7608 66.2015 87.9023 66.2015C87.9953 66.2015 89.482 67.7624 90.8758 68.1297Z" fill="#9F4A8B"/>
<path d="M94.7812 68.3133C94.7812 68.3133 97.3831 67.3033 97.8477 65.8342C97.8477 65.8342 97.1972 63.7224 95.4317 61.7024C95.4317 61.7024 97.1043 64.5487 97.0114 65.7424C97.0114 65.7424 96.1751 67.6706 94.7812 68.3133Z" fill="#CB4D7A"/>
<path d="M87.9965 40.4003C87.9965 40.4003 87.5319 42.4204 85.7664 44.0731C85.7664 44.0731 79.1689 44.4404 74.8945 46.8277C74.8945 46.8277 76.1025 44.3486 79.8194 43.1549C84.2797 41.7776 87.9965 40.4003 87.9965 40.4003Z" fill="#38368E"/>
<path d="M97.0115 44.3486C97.0115 44.3486 93.4805 52.9795 93.4805 55.4587C93.4805 57.9378 93.6663 58.305 93.6663 58.305C93.6663 58.305 97.9407 60.1414 99.1487 57.9378C99.1487 57.9378 98.6841 51.1432 99.1487 46.7359C99.1487 46.7359 98.8699 42.604 97.0115 44.3486Z" fill="url(#paint22_linear_377_1269)"/>
<path d="M84.4675 52.0614C84.4675 52.0614 86.233 55.275 84.5604 58.4887C84.5604 58.4887 79.8214 59.2232 77.3125 55.275C77.3125 55.275 79.3568 52.0614 84.4675 52.0614Z" fill="#FFEBED"/>
<path d="M84.3754 51.3268C84.3754 51.3268 83.4462 49.3986 83.1674 49.1232C83.1674 49.1232 78.6142 50.7759 77.4062 55.1832H77.685C77.5921 55.275 79.4505 52.6123 84.3754 51.3268Z" fill="url(#paint23_linear_377_1269)"/>
<path d="M93.2031 56.285C93.2031 56.285 94.8757 52.1532 97.8492 51.9695C97.8492 51.9695 98.5926 54.5405 98.2209 56.6523C98.2209 56.6523 97.8492 58.7642 96.3625 58.6723C94.7828 58.5805 93.2031 56.285 93.2031 56.285Z" fill="#FFEBED"/>
<path d="M97.847 51.0513C97.847 51.0513 97.0107 49.215 96.1744 49.215C95.7098 49.215 93.5726 52.0614 93.3867 56.0096C93.3867 55.9177 94.3159 52.6123 97.847 51.0513Z" fill="url(#paint24_linear_377_1269)"/>
<path d="M82.3313 52.5205C82.3313 52.5205 82.7959 57.295 80.6587 58.0296C80.6587 58.0296 78.1498 57.1114 77.4064 55.275C77.3135 55.275 78.8003 52.8877 82.3313 52.5205Z" fill="#7F9EC9"/>
<path d="M96.4554 52.5205C96.4554 52.5205 97.2917 57.295 95.3403 58.3969C95.3403 58.3969 93.5748 57.295 93.2031 56.285C93.2031 56.285 94.3182 53.3468 96.4554 52.5205Z" fill="#7F9EC9"/>
<path d="M77.3125 55.275C77.3125 55.275 79.8214 52.7041 84.4675 52.0614L84.8392 52.8877C84.8392 52.8877 86.6976 51.6941 86.233 51.235C85.7684 50.7759 80.1931 51.3268 77.3125 55.275Z" fill="#131163"/>
<path d="M93.2031 56.285C93.2031 56.285 94.4111 52.8877 97.8492 51.9695L98.0351 52.7959C98.0351 52.7959 99.9864 51.1432 99.7077 50.8677C99.336 50.4086 94.7828 50.9595 93.2031 56.285Z" fill="#131163"/>
<path d="M83.4432 70.517C83.4432 70.517 86.3238 74.0061 90.8769 74.557C95.4301 75.1079 97.0098 73.0879 97.0098 73.0879C97.0098 73.0879 95.3372 75.8425 90.8769 75.567C86.4167 75.2916 82.3281 70.517 82.3281 70.517H83.4432Z" fill="url(#paint25_linear_377_1269)"/>
<path d="M96.2685 44.9913C96.2685 44.9913 92.6445 53.4386 92.6445 55.275C92.6445 57.1114 95.3393 61.7024 95.3393 61.7024C95.3393 61.7024 93.295 57.7541 93.3879 55.4587C93.4808 53.1632 96.4543 46.2768 96.4543 46.2768L96.2685 44.9913Z" fill="#CB4D7A"/>
<path d="M94.7812 49.5823C94.7812 49.5823 96.5468 42.8795 98.4052 41.8695C99.799 41.1349 99.1486 46.8277 99.1486 46.8277C99.1486 46.8277 99.2415 45.0831 97.8477 45.3586C96.4539 45.634 94.7812 49.5823 94.7812 49.5823Z" fill="#38368E"/>
<path d="M163.823 114.59L206.753 113.121L198.018 135.525H154.902L163.823 114.59Z" fill="white"/>
<path opacity="0.5" d="M96.6414 40.1249C95.8051 35.7176 91.9953 32.2285 91.9953 32.2285C91.4378 32.4121 90.8802 32.5957 90.2298 32.6875L85.7695 25.0666C92.0882 27.6375 94.8759 34.3403 94.8759 34.3403C94.8759 34.3403 97.5706 36.7276 97.8494 31.4939C98.1281 26.4439 94.9688 22.4956 94.783 22.312C98.7786 25.8011 100.172 29.5657 100.172 29.5657C102.031 23.0466 100.172 20.3838 99.8007 19.9247C101.009 21.1184 101.938 22.6793 102.403 24.6075C104.447 32.7794 96.6414 40.1249 96.6414 40.1249Z" fill="url(#paint26_linear_377_1269)"/>
<path opacity="0.5" d="M74.5236 27.913C74.2448 28.1884 69.5058 32.8712 68.2049 34.7076V34.7994C68.112 34.7994 68.019 34.8912 67.9261 34.8912C65.7889 35.4421 66.9969 36.6358 66.9969 36.6358C66.9969 36.6358 69.5987 41.4104 67.0898 46.8277C65.5101 50.1332 65.4172 54.7241 65.5101 57.846L64.3022 59.6823L60.4924 53.3468L57.2401 51.6023C56.3109 50.0413 55.3816 48.5722 54.917 47.3786C54.0807 45.1749 53.3374 43.3386 53.0586 41.7776C54.6383 41.3185 56.8684 40.584 59.749 39.2067C65.696 36.4521 67.1827 33.5139 67.1827 33.5139L64.7668 31.7694C64.7668 31.7694 64.7668 31.7694 64.7668 31.6775C64.5809 31.3103 63.5588 29.4739 63.8375 28.2802C63.8375 28.1884 63.8375 28.1884 63.8375 28.0966C63.8375 28.0048 63.8375 28.0048 63.9305 27.913C63.9305 27.913 63.9305 27.8212 64.0234 27.8212C64.0234 27.7293 64.1163 27.7293 64.1163 27.6375C64.2092 27.5457 64.2092 27.4539 64.3022 27.4539C65.1384 26.6275 66.811 26.0766 67.1827 25.9848H67.2757C67.2757 25.9848 66.4394 27.6375 67.8332 29.1066C69.1341 30.3921 74.1519 28.0048 74.5236 27.913Z" fill="url(#paint27_linear_377_1269)"/>
<path d="M62.6301 55.3668C62.6301 55.3668 56.776 48.2968 52.5016 53.4386C49.2493 57.3869 52.9662 70.517 58.8203 70.517C64.5814 70.6088 66.254 60.5087 62.6301 55.3668Z" fill="url(#paint28_linear_377_1269)"/>
<path d="M62.3519 61.9778C62.3519 61.9778 60.3076 55.5505 53.6172 56.8359C53.6172 56.8359 55.9402 56.8359 57.6128 59.0396C57.6128 59.0396 57.7058 65.0078 59.0996 66.5688C60.4005 68.1297 62.8165 64.1815 62.3519 61.9778Z" fill="url(#paint29_linear_377_1269)"/>
<path d="M51.6641 54.9077C51.6641 54.9077 53.5225 52.5204 58.3544 53.6223C63.1864 54.7241 64.3014 59.5905 64.3014 59.5905C64.3014 59.5905 62.5359 52.0613 57.6111 50.8677C53.4296 50.0413 51.6641 54.9077 51.6641 54.9077Z" fill="url(#paint30_linear_377_1269)"/>
<path d="M56.4991 56.7441C56.4991 56.7441 54.1761 60.6923 55.2911 64.6405C55.2911 64.6405 55.5699 60.5087 57.8929 57.9378L56.4991 56.7441Z" fill="url(#paint31_linear_377_1269)"/>
<path opacity="0.5" d="M90.7865 90.3499C90.7865 90.3499 80.4722 92.4617 71.9234 84.6571C63.3745 76.8525 62.4453 70.1497 62.4453 70.1497C62.4453 70.1497 64.8613 64.3651 64.3967 60.5087C64.3967 60.5087 64.2108 59.4069 65.4188 58.4887C65.4188 58.4887 65.9764 59.866 66.8127 61.7023C66.8127 61.9778 66.348 67.3033 66.9056 72.1697C67.4631 77.1279 76.0119 86.5853 76.0119 86.5853C76.0119 86.5853 86.605 85.3916 90.3219 86.5853C93.9459 87.6871 90.9724 90.1662 90.7865 90.3499Z" fill="url(#paint32_linear_377_1269)"/>
<path opacity="0.5" d="M84.9336 69.2315C84.9336 69.2315 93.7612 74.3734 98.5931 71.7106C98.5931 71.8024 94.6904 76.4852 84.9336 69.2315Z" fill="url(#paint33_linear_377_1269)"/>
<path d="M122.844 101.276C122.844 101.276 128.605 105.959 132.043 102.103L127.397 111.927C127.49 112.019 123.03 109.173 122.844 101.276Z" fill="url(#paint34_linear_377_1269)"/>
<path opacity="0.5" d="M119.407 109.173C119.407 109.173 119.778 117.987 123.681 121.844C123.681 121.844 120.15 120.926 118.57 110.366L119.407 109.173Z" fill="url(#paint35_linear_377_1269)"/>
<path opacity="0.3" d="M113.366 117.712C111.694 121.201 103.052 130.934 100.915 135.525C99.242 140.759 107.419 141.126 107.419 141.126C107.419 141.126 117.826 134.148 121.172 127.169C121.172 127.169 109.556 151.134 107.419 154.623C107.419 154.623 97.6623 142.595 95.7109 137.178C103.888 129.189 107.884 124.598 113.366 117.712Z" fill="url(#paint36_linear_377_1269)"/>
<path opacity="0.5" d="M77.8713 157.286C77.8713 157.286 74.3403 167.937 64.3047 169.406C64.3047 169.406 65.6985 162.979 68.3933 160.591C71.088 158.204 76.4775 156.184 77.8713 157.286Z" fill="#4723A9"/>
<path opacity="0.3" d="M178.599 175.65C178.599 175.65 171.908 178.588 169.214 185.199C169.214 185.199 124.797 187.219 106.863 184.464C106.863 184.464 90.3227 166.743 77.9641 157.286C77.9641 157.286 74.8048 168.029 64.4904 169.498C64.4904 169.498 51.4814 156.092 56.5921 134.423C61.0523 115.508 74.8977 108.714 75.2694 108.53C74.8977 108.897 62.632 122.119 60.309 134.148C58.5434 143.513 64.3046 149.298 67.0923 151.593C67.9285 152.236 68.579 152.603 68.579 152.603L78.9863 154.715C78.9863 154.715 98.7786 174.364 108.628 179.047C118.571 183.73 163.452 178.129 172.001 175.007C174.231 175.282 176.554 175.466 178.599 175.65Z" fill="url(#paint37_linear_377_1269)"/>
<path opacity="0.5" d="M162.613 185.383C162.613 185.383 165.773 179.047 171.813 174.915C171.813 174.915 164.843 180.975 164.1 185.383H162.613Z" fill="url(#paint38_linear_377_1269)"/>
<path opacity="0.5" d="M27.3201 206.776C28.3423 206.501 44.9753 208.429 56.4047 203.379C37.7274 217.06 4.68208 202.303 3.00949 192.294C1.33689 182.286 16.1695 182.72 22.4882 160.316C28.8069 138.004 30.4795 110.642 31.5945 108.438C31.5945 108.438 27.8776 148.747 20.5368 171.885C13.0101 195.483 24.0679 192.269 37.2628 188.504C37.2628 188.504 56.4047 182.261 66.9048 169.59C73.6881 161.418 77.8696 157.286 77.8696 157.286L79.5422 157.745C71.9226 176.752 53.8029 200.257 53.2454 200.992C53.2454 200.992 43.1169 205.491 27.3201 206.776Z" fill="url(#paint39_linear_377_1269)"/>
<path opacity="0.5" d="M73.7812 106.877C73.7812 106.877 52.1303 115.325 42.2806 115.049C32.4309 114.682 31.6875 108.438 31.6875 108.438C37.077 98.2463 48.0418 91.4517 48.0418 91.4517C61.3296 95.859 73.7812 106.877 73.7812 106.877Z" fill="#CE47B8"/>
<path opacity="0.3" d="M59.2852 142.136C59.2852 142.136 83.5378 158.112 104.352 160.775C104.352 160.683 77.4979 147.461 59.2852 142.136Z" fill="url(#paint40_linear_377_1269)"/>
<path opacity="0.5" d="M22.0234 183.913C22.0234 183.913 37.0768 179.782 48.5062 157.01C48.5062 157.01 32.059 176.66 22.0234 183.913Z" fill="url(#paint41_linear_377_1269)"/>
<path opacity="0.3" d="M75.8266 96.9608C75.8266 96.9608 63.5609 96.2263 58.0785 94.7572C52.5032 93.2881 48.6005 90.6253 48.6005 90.6253L48.043 91.5435C48.043 91.5435 61.7025 95.9508 74.247 105.867C74.247 105.775 76.8488 102.103 75.8266 96.9608Z" fill="url(#paint42_linear_377_1269)"/>
<path opacity="0.5" d="M64.2083 172.436C64.2083 172.436 49.7125 185.566 45.0664 203.195L53.2435 200.9C53.2435 200.9 74.8944 171.151 79.1688 158.571L77.8679 157.102C77.8679 157.102 73.7793 167.202 64.3942 169.314L64.2083 172.436Z" fill="url(#paint43_linear_377_1269)"/>
<path d="M153.508 141.677L150.441 149.206L192.349 150.124L195.416 141.677H153.508Z" fill="url(#paint44_linear_377_1269)"/>
<path d="M167.262 144.615L166.426 146.819L178.599 147.094L179.528 144.615H167.262Z" fill="white"/>
<path opacity="0.82" d="M248.847 98.5218L121.266 157.745L145.518 102.47L248.847 98.5218Z" fill="url(#paint45_linear_377_1269)"/>
<path d="M177.668 176.292C177.668 176.292 177.297 179.414 181.757 184.189L169.398 184.74C169.398 184.74 171.907 178.955 177.204 176.476L177.668 176.292Z" fill="url(#paint46_linear_377_1269)"/>
<path d="M220.226 181.618C219.11 181.434 217.902 181.067 217.159 180.516C215.486 179.322 212.699 177.211 212.699 177.211C212.699 177.211 208.982 176.843 206.752 177.211L202.57 178.404L210.283 178.129L212.978 177.762C212.885 177.67 215.765 181.067 220.226 181.618Z" fill="#E4688E"/>
<path d="M220.598 175.007C220.598 175.007 217.996 172.62 215.766 171.334C215.766 171.334 222.456 172.987 223.85 174.456C223.85 174.364 222.27 175.466 220.598 175.007Z" fill="#E4688E"/>
<path opacity="0.2" d="M225.523 157.745L224.594 154.623L241.506 115.508V119.181L225.523 157.745Z" fill="url(#paint47_linear_377_1269)"/>
<path d="M140.593 202.92C137.898 202.92 135.203 202.644 133.531 202.002C132.323 201.543 131.672 200.9 131.672 200.165C131.672 199.523 132.137 198.88 133.066 198.237C128.978 197.962 124.332 197.686 120.057 197.503C97.663 196.309 83.0742 195.299 83.0742 191.626C83.0742 190.341 83.1671 187.035 132.602 184.923C156.854 183.913 181.479 183.638 181.664 183.638V184.464C181.386 184.464 156.854 184.74 132.602 185.75C88.6495 187.678 83.9105 190.433 83.8176 191.626C83.8176 194.748 104.725 195.758 119.964 196.584C125.54 196.86 130.279 197.135 134.274 197.411C135.111 196.952 136.133 196.584 137.248 196.125C148.677 191.81 170.235 191.902 187.611 191.993C194.766 191.993 201.55 192.085 206.568 191.81C237.325 190.065 251.635 187.035 254.515 181.71C255.166 180.424 255.166 179.231 254.608 178.037C250.613 170.141 222.55 165.366 222.271 165.366L222.457 164.54C223.665 164.723 251.263 169.406 255.444 177.762C256.188 179.231 256.188 180.7 255.352 182.261C252.285 188.045 238.254 191.075 206.66 192.82C201.55 193.095 194.766 193.095 187.611 193.003C170.328 192.912 148.77 192.82 137.526 197.044C136.969 197.227 136.411 197.503 135.947 197.686C143.474 198.237 147.748 198.972 148.305 200.349C148.398 200.533 148.491 200.992 148.027 201.451C147.283 202.461 143.938 202.92 140.593 202.92ZM134.553 198.329C132.695 199.339 132.509 199.982 132.509 200.165C132.509 200.533 132.973 200.9 133.81 201.175C137.434 202.461 146.354 202.277 147.655 200.808C147.748 200.716 147.748 200.624 147.748 200.624C147.283 199.614 141.708 198.88 134.553 198.329Z" fill="#36295C"/>
<path d="M67.2769 33.5139C66.9981 31.3103 66.9052 29.1066 67.1839 26.903C67.3698 25.8011 67.5556 24.6993 68.2061 23.6893C68.4848 23.2302 68.9495 22.6793 69.5999 22.4957C70.1574 22.2202 70.715 22.1284 71.3654 22.1284C72.4805 22.0366 73.5956 22.2202 74.7106 22.312C75.8257 22.4038 76.9407 22.4957 77.9629 22.4957C80.1001 22.4957 82.3302 22.2202 84.3745 21.5775C85.3967 21.302 86.4188 20.8429 87.5338 20.5675C88.6489 20.292 89.9498 20.4756 91.0649 20.9347C92.18 21.3938 93.0163 22.2202 93.7596 23.0466C94.503 23.9648 95.0605 24.8829 95.5251 25.893C96.4544 27.913 97.0119 30.1166 97.3836 32.2285C97.6624 34.4321 97.7553 36.6358 97.3836 38.8394C97.5694 36.6358 97.3836 34.4321 96.919 32.3203C96.5473 30.2084 95.8968 28.0966 94.8747 26.1684C93.9455 24.2402 92.6446 22.4038 90.6932 21.5775C89.764 21.1184 88.7418 21.1184 87.7197 21.302C86.6976 21.4856 85.6754 22.0366 84.6533 22.312C82.5161 22.9547 80.193 23.2302 77.9629 23.2302C75.7328 23.2302 73.5026 22.7711 71.3654 22.7711C70.3433 22.7711 69.2282 23.0466 68.7636 23.9648C68.2061 24.7911 67.9273 25.893 67.7415 26.9948C67.1839 29.1066 67.1839 31.3103 67.2769 33.5139Z" fill="url(#paint48_linear_377_1269)"/>
<path d="M65.3242 26.5357L77.0324 21.9447L82.8865 19.6493C83.9086 19.282 84.8378 18.8229 85.86 18.4556L87.4396 17.9965C87.9972 17.9047 88.5547 17.8129 89.0193 17.7211C91.1565 17.5374 93.4796 17.9965 95.338 19.0984C97.1964 20.2002 98.7761 21.8529 99.7053 23.7811C100.727 25.7093 101.192 27.8212 101.192 29.933C101.192 32.0448 100.727 34.1567 99.8912 36.0849C100.449 34.0648 100.82 32.0448 100.727 29.933C100.635 27.913 100.077 25.893 99.0549 24.1484C98.0327 22.4038 96.6389 20.8429 94.8734 19.9247C93.1079 18.9147 91.0636 18.5474 89.0193 18.7311C88.5547 18.8229 87.9972 18.8229 87.5326 19.0065L86.1387 19.282C85.1166 19.6493 84.1874 20.0165 83.1652 20.3838C81.2139 21.1184 79.2625 21.8529 77.2182 22.5875C73.3155 23.9648 69.3199 25.342 65.3242 26.5357Z" fill="url(#paint49_linear_377_1269)"/>
<path d="M132.414 101.735C132.414 101.735 144.587 86.5853 147.189 82.4534C147.096 82.4534 140.127 95.3999 132.414 101.735Z" fill="#34C7FF"/>
<path d="M142.82 84.1062C142.82 84.1062 145.236 83.6471 146.258 82.3616V83.2798L147.095 82.3616C147.095 82.3616 146.909 80.4334 146.444 79.8825C146.444 79.8825 146.073 82.2698 142.82 84.1062Z" fill="#34C7FF"/>
<path d="M145.051 62.1614L141.613 71.6188C141.613 71.6188 144.773 66.5687 145.051 62.1614Z" fill="#34C7FF"/>
<path d="M108.906 151.41C108.906 151.41 121.915 119.732 126.747 115.508C126.747 115.508 112.159 146.727 108.906 151.41Z" fill="#34C7FF"/>
<path d="M101.38 69.2315C101.38 69.2315 99.0572 83.7389 91.8093 89.7071C91.7163 89.799 101.38 82.8207 101.38 69.2315Z" fill="#34C7FF"/>
<path d="M117.453 164.907C117.453 164.907 123.493 166.835 140.126 170.6C156.759 174.364 178.596 175.65 178.596 175.65C178.596 175.65 142.821 170.967 117.453 164.907Z" fill="#34C7FF"/>
<path d="M184.73 175.007C184.73 175.007 212.05 170.232 213.629 170.508C213.629 170.508 207.032 169.498 184.73 175.007Z" fill="#34C7FF"/>
<path d="M77.3125 55.275C77.3125 55.275 78.5205 57.2032 79.8214 56.9278C81.1223 56.6523 81.494 53.5305 81.3082 52.8877C81.3082 52.8877 79.1709 53.4386 77.3125 55.275Z" fill="#38368E"/>
<path d="M93.6657 57.0196L94.6878 57.9378C94.6878 57.9378 95.4312 57.3869 95.617 56.0096C95.8029 54.6323 95.5241 53.255 95.5241 53.255C95.5241 53.255 93.9444 54.4487 93.5728 55.5505C93.4798 55.4587 93.4798 56.6523 93.6657 57.0196Z" fill="#38368E"/>
<path d="M80.6562 55.275C80.6562 55.275 82.143 54.8159 83.1651 55.275C83.1651 55.275 81.5855 55.7341 80.6562 55.275Z" fill="white"/>
<path d="M95.3398 55.275C95.3398 55.275 96.8266 54.8159 97.8487 55.275C97.8487 55.275 96.2691 55.8259 95.3398 55.275Z" fill="white"/>
<path d="M173.578 79.148C173.578 79.148 180.176 78.4134 188.26 74.2816C196.344 70.1497 202.849 47.5622 200.711 44.7158C198.574 41.8695 181.476 53.1632 177.109 62.3451C172.742 71.527 175.622 77.4034 175.622 77.4034L173.578 78.2298V79.148Z" fill="url(#paint50_linear_377_1269)"/>
<path opacity="0.82" d="M176.832 77.2198C176.832 77.2198 189.377 52.9796 199.877 44.8077C199.877 44.8077 200.527 74.1897 176.832 77.2198Z" fill="url(#paint51_linear_377_1269)"/>
<path d="M125.257 67.6706L118.566 65.8342L119.031 64.2733L125.628 66.6606L125.257 67.6706Z" fill="url(#paint52_linear_377_1269)"/>
<path d="M128.047 64.2733L125.445 57.9378L127.025 57.3869L129.069 63.906L128.047 64.2733Z" fill="url(#paint53_linear_377_1269)"/>
<path d="M132.227 64.1815L135.107 57.7542L136.687 58.4887L133.156 64.6406L132.227 64.1815Z" fill="url(#paint54_linear_377_1269)"/>
<path d="M135.108 34.8912C135.108 34.8912 136.873 15.3338 129.718 0.0918274C129.718 0.0918274 128.325 1.28547 124.422 4.40732C124.422 4.40732 130.648 23.7811 129.718 34.8912H135.108Z" fill="url(#paint55_linear_377_1269)"/>
<path d="M164.937 5.50915C164.937 5.50915 136.967 -0.734545 129.812 0.0918256C133.251 11.3856 134.366 20.0165 135.202 34.8912L148.304 36.0849L142.543 39.8494L165.402 33.1467C165.309 33.2385 167.539 16.6192 164.937 5.50915Z" fill="url(#paint56_linear_377_1269)"/>
<path d="M142.45 39.9413L145.888 36.544L129.812 34.8912L135.016 34.0648L151.928 35.2585L142.45 39.9413Z" fill="url(#paint57_linear_377_1269)"/>
<path d="M139.384 15.4256C140.313 15.5174 140.685 15.5174 141.614 15.6092C141.707 16.3438 141.707 16.6192 141.707 17.3538C140.778 17.262 140.313 17.262 139.477 17.1702C139.57 18.6393 139.57 19.3738 139.663 20.6593C140.778 20.7511 141.336 20.7511 142.451 20.8429C142.451 21.4857 142.451 21.8529 142.451 22.4957C140.685 22.4038 139.756 22.312 138.083 22.2202C138.176 17.8129 137.712 14.5992 137.34 10.4674C139.105 10.5592 140.035 10.651 141.893 10.8347C141.893 11.3856 141.986 11.7528 141.986 12.3956C140.871 12.3038 140.22 12.2119 139.105 12.1201C139.198 13.4056 139.291 14.0483 139.384 15.4256Z" fill="white"/>
<path d="M148.769 22.9548C148.119 22.8629 147.747 22.8629 147.096 22.8629C147.003 22.0366 146.911 21.6693 146.818 20.8429C145.981 20.7511 145.61 20.7511 144.773 20.6593C144.68 21.4857 144.587 21.9447 144.495 22.6793C143.937 22.6793 143.565 22.5875 143.008 22.5875C143.751 18.272 143.658 15.242 144.123 11.1101C145.145 11.2019 145.61 11.2937 146.632 11.3856C147.561 15.6092 148.211 18.6393 148.769 22.9548ZM144.959 19.0065C145.61 19.0984 145.888 19.0984 146.539 19.1902C146.167 16.8029 145.888 15.5174 145.424 13.1301C145.238 15.3338 145.238 16.6192 144.959 19.0065Z" fill="white"/>
<path d="M149.141 14.3238C149.141 13.4056 149.326 12.7628 149.698 12.3038C150.07 11.9365 150.72 11.7528 151.557 11.8447C152.393 11.9365 153.043 12.3038 153.508 12.8547C153.973 13.4056 154.158 14.1401 154.158 14.9665C154.158 15.1501 154.158 15.1501 154.158 15.3338C153.508 15.242 153.229 15.1501 152.579 15.0583C152.579 14.8747 152.579 14.7829 152.579 14.5992C152.579 14.232 152.486 13.8647 152.3 13.681C152.114 13.4974 151.928 13.4056 151.65 13.3138C151.371 13.3138 151.185 13.3138 150.999 13.4974C150.813 13.681 150.813 13.9565 150.813 14.3238C150.813 14.691 150.906 15.0583 151.092 15.4256C151.278 15.7929 151.464 16.0683 151.742 16.3438C152.021 16.6192 152.3 16.9865 152.579 17.262C152.858 17.5374 153.136 17.9047 153.415 18.272C153.694 18.6393 153.88 19.0065 154.066 19.4656C154.251 19.9247 154.344 20.3838 154.344 20.8429C154.344 21.7611 154.158 22.4038 153.694 22.7711C153.229 23.2302 152.672 23.322 151.835 23.322C150.999 23.2302 150.442 22.9548 150.07 22.4957C149.698 21.9447 149.512 21.302 149.419 20.3838C149.419 20.1084 149.419 19.9247 149.419 19.6493C150.07 19.7411 150.349 19.7411 150.999 19.8329C150.999 20.2002 150.999 20.292 150.999 20.6593C150.999 21.0266 151.092 21.3938 151.278 21.5775C151.464 21.7611 151.65 21.8529 151.928 21.8529C152.207 21.8529 152.393 21.8529 152.579 21.6693C152.765 21.4856 152.858 21.2102 152.858 20.8429C152.858 20.4756 152.765 20.1084 152.579 19.8329C152.393 19.5575 152.207 19.1902 151.928 18.9147C151.65 18.6393 151.371 18.272 151.092 17.9965C150.813 17.7211 150.534 17.3538 150.256 16.9865C149.977 16.6192 149.791 16.252 149.605 15.7929C149.234 15.3338 149.141 14.7829 149.141 14.3238Z" fill="white"/>
<path d="M156.668 20.1084C155.831 17.0783 155.274 15.3338 154.438 12.3956C155.181 12.4874 155.553 12.5792 156.203 12.671C156.668 14.691 157.039 15.7929 157.504 17.8129C157.969 15.8847 158.247 14.8747 158.712 13.1301C159.362 13.2219 159.641 13.3138 160.292 13.4056C159.362 15.9765 159.084 17.4456 158.247 20.2002C158.247 21.6693 158.247 22.4038 158.154 23.6893C157.504 23.5975 157.132 23.5975 156.482 23.5057C156.668 22.312 156.668 21.5775 156.668 20.1084Z" fill="white"/>
<path d="M162.614 22.8629C162.614 23.5057 162.614 23.7811 162.521 24.4239C161.871 24.3321 161.592 24.332 160.941 24.2402C160.941 23.5975 161.034 23.322 161.034 22.6793C161.685 22.6793 162.056 22.7711 162.614 22.8629ZM161.22 21.9448C161.127 20.3838 161.127 19.6493 161.034 18.0884C161.034 16.3438 161.034 15.4256 161.034 13.681C161.685 13.8647 162.056 13.8647 162.707 14.0483C162.614 15.7011 162.707 16.6193 162.707 18.3638C162.614 19.8329 162.614 20.6593 162.521 22.1284C161.964 22.0366 161.778 21.9448 161.22 21.9448Z" fill="white"/>
<defs>
<linearGradient id="paint0_linear_377_1269" x1="222.731" y1="98.2081" x2="224.572" y2="83.3651" gradientUnits="userSpaceOnUse">
<stop stop-color="#2E33A0"/>
<stop offset="1" stop-color="#0665A5"/>
</linearGradient>
<linearGradient id="paint1_linear_377_1269" x1="240.745" y1="95.4634" x2="240.169" y2="85.0871" gradientUnits="userSpaceOnUse">
<stop stop-color="#2E33A0"/>
<stop offset="1" stop-color="#0665A5"/>
</linearGradient>
<linearGradient id="paint2_linear_377_1269" x1="229.073" y1="101.306" x2="217.096" y2="80.1129" gradientUnits="userSpaceOnUse">
<stop stop-color="#313131"/>
<stop offset="1" stop-color="#365E8B"/>
</linearGradient>
<linearGradient id="paint3_linear_377_1269" x1="237.318" y1="100.018" x2="240.583" y2="73.7027" gradientUnits="userSpaceOnUse">
<stop stop-color="#1852A0"/>
<stop offset="1" stop-color="#067ED3"/>
</linearGradient>
<linearGradient id="paint4_linear_377_1269" x1="243.966" y1="94.8207" x2="234.649" y2="78.3339" gradientUnits="userSpaceOnUse">
<stop stop-color="#313131"/>
<stop offset="1" stop-color="#365E8B"/>
</linearGradient>
<linearGradient id="paint5_linear_377_1269" x1="124.239" y1="115.487" x2="124.239" y2="104.921" gradientUnits="userSpaceOnUse">
<stop stop-color="#836CEB"/>
<stop offset="1" stop-color="#C3A4EB"/>
</linearGradient>
<linearGradient id="paint6_linear_377_1269" x1="117.653" y1="88.9026" x2="147.125" y2="88.9026" gradientUnits="userSpaceOnUse">
<stop offset="0.0159875" stop-color="#FFC2A9"/>
<stop offset="1" stop-color="#FF9595"/>
</linearGradient>
<linearGradient id="paint7_linear_377_1269" x1="107.403" y1="163.243" x2="107.403" y2="104.921" gradientUnits="userSpaceOnUse">
<stop stop-color="#B9ACF4"/>
<stop offset="1" stop-color="#E1D1F5"/>
</linearGradient>
<linearGradient id="paint8_linear_377_1269" x1="100.166" y1="41.0133" x2="100.166" y2="25.9834" gradientUnits="userSpaceOnUse">
<stop stop-color="#0E1B6D"/>
<stop offset="1" stop-color="#0E4095"/>
</linearGradient>
<linearGradient id="paint9_linear_377_1269" x1="81.3054" y1="89.9653" x2="81.3054" y2="27.0468" gradientUnits="userSpaceOnUse">
<stop offset="0.0159875" stop-color="#FFC2A9"/>
<stop offset="1" stop-color="#FF9595"/>
</linearGradient>
<linearGradient id="paint10_linear_377_1269" x1="77.8361" y1="61.0747" x2="77.8361" y2="15.1834" gradientUnits="userSpaceOnUse">
<stop stop-color="#2E33A0"/>
<stop offset="1" stop-color="#0665A5"/>
</linearGradient>
<linearGradient id="paint11_linear_377_1269" x1="80.5977" y1="35.2916" x2="80.5977" y2="23.898" gradientUnits="userSpaceOnUse">
<stop stop-color="#0E1B6D"/>
<stop offset="1" stop-color="#0E4095"/>
</linearGradient>
<linearGradient id="paint12_linear_377_1269" x1="47.5137" y1="96.9389" x2="76.154" y2="96.9389" gradientUnits="userSpaceOnUse">
<stop stop-color="#D5CDF8"/>
<stop offset="1" stop-color="#F3EDFB"/>
</linearGradient>
<linearGradient id="paint13_linear_377_1269" x1="72.056" y1="83.7656" x2="72.056" y2="53.498" gradientUnits="userSpaceOnUse">
<stop stop-color="#FF7C7C"/>
<stop offset="0.984" stop-color="#FF9E8B"/>
</linearGradient>
<linearGradient id="paint14_linear_377_1269" x1="41.7272" y1="210.958" x2="41.7272" y2="91.4661" gradientUnits="userSpaceOnUse">
<stop stop-color="#8642A0"/>
<stop offset="1" stop-color="#6456C0"/>
</linearGradient>
<linearGradient id="paint15_linear_377_1269" x1="66.891" y1="172.475" x2="66.891" y2="107.02" gradientUnits="userSpaceOnUse">
<stop stop-color="#755CBB"/>
<stop offset="1" stop-color="#CCEDFF"/>
</linearGradient>
<linearGradient id="paint16_linear_377_1269" x1="81.3142" y1="58.9748" x2="81.3142" y2="40.36" gradientUnits="userSpaceOnUse">
<stop offset="0.0159875" stop-color="#FF9E8B"/>
<stop offset="1" stop-color="#FF7C7C"/>
</linearGradient>
<linearGradient id="paint17_linear_377_1269" x1="168.226" y1="178.237" x2="224.993" y2="178.237" gradientUnits="userSpaceOnUse">
<stop offset="0.0159875" stop-color="#FFC2A9"/>
<stop offset="1" stop-color="#FF9595"/>
</linearGradient>
<linearGradient id="paint18_linear_377_1269" x1="116.908" y1="185.895" x2="116.908" y2="108.415" gradientUnits="userSpaceOnUse">
<stop stop-color="#B9ACF4"/>
<stop offset="1" stop-color="#E1D1F5"/>
</linearGradient>
<linearGradient id="paint19_linear_377_1269" x1="66.7486" y1="150.121" x2="178.584" y2="150.121" gradientUnits="userSpaceOnUse">
<stop stop-color="#D5CDF8"/>
<stop offset="1" stop-color="#F3EDFB"/>
</linearGradient>
<linearGradient id="paint20_linear_377_1269" x1="81.9099" y1="90.6297" x2="81.9099" y2="58.5028" gradientUnits="userSpaceOnUse">
<stop stop-color="#2E33A0"/>
<stop offset="1" stop-color="#0665A5"/>
</linearGradient>
<linearGradient id="paint21_linear_377_1269" x1="92.1832" y1="68.4786" x2="92.8702" y2="64.8582" gradientUnits="userSpaceOnUse">
<stop stop-color="#E1616A"/>
<stop offset="1" stop-color="#FF8883"/>
</linearGradient>
<linearGradient id="paint22_linear_377_1269" x1="96.3267" y1="59.065" x2="96.3267" y2="43.9278" gradientUnits="userSpaceOnUse">
<stop offset="0.0159875" stop-color="#FF9E8B"/>
<stop offset="1" stop-color="#FF7C7C"/>
</linearGradient>
<linearGradient id="paint23_linear_377_1269" x1="80.8711" y1="55.2771" x2="80.8711" y2="49.1837" gradientUnits="userSpaceOnUse">
<stop stop-color="#CF6074"/>
<stop offset="1" stop-color="#FF817F"/>
</linearGradient>
<linearGradient id="paint24_linear_377_1269" x1="95.5773" y1="55.9566" x2="95.5773" y2="49.1837" gradientUnits="userSpaceOnUse">
<stop stop-color="#CF6074"/>
<stop offset="1" stop-color="#FF817F"/>
</linearGradient>
<linearGradient id="paint25_linear_377_1269" x1="89.0127" y1="75.2819" x2="89.6887" y2="71.72" gradientUnits="userSpaceOnUse">
<stop stop-color="#E1616A"/>
<stop offset="1" stop-color="#FF8883"/>
</linearGradient>
<linearGradient id="paint26_linear_377_1269" x1="94.3054" y1="40.1137" x2="94.3054" y2="19.9842" gradientUnits="userSpaceOnUse">
<stop stop-color="#CCEDFF"/>
<stop offset="1" stop-color="#9D68C2"/>
</linearGradient>
<linearGradient id="paint27_linear_377_1269" x1="63.7777" y1="59.6859" x2="63.7777" y2="25.891" gradientUnits="userSpaceOnUse">
<stop stop-color="#CCEDFF"/>
<stop offset="1" stop-color="#9D68C2"/>
</linearGradient>
<linearGradient id="paint28_linear_377_1269" x1="58.0778" y1="70.5744" x2="57.7631" y2="51.554" gradientUnits="userSpaceOnUse">
<stop offset="0.0159875" stop-color="#FFAC8B"/>
<stop offset="1" stop-color="#FF9595"/>
</linearGradient>
<linearGradient id="paint29_linear_377_1269" x1="62.2366" y1="65.3698" x2="55.049" y2="55.8213" gradientUnits="userSpaceOnUse">
<stop stop-color="#FF817F"/>
<stop offset="1" stop-color="#CF6074"/>
</linearGradient>
<linearGradient id="paint30_linear_377_1269" x1="58.0485" y1="59.7861" x2="57.9006" y2="50.8491" gradientUnits="userSpaceOnUse">
<stop stop-color="#FFA795"/>
<stop offset="0.984" stop-color="#FFC2A9"/>
</linearGradient>
<linearGradient id="paint31_linear_377_1269" x1="57.7408" y1="62.6714" x2="54.3579" y2="58.477" gradientUnits="userSpaceOnUse">
<stop stop-color="#FF817F"/>
<stop offset="1" stop-color="#CF6074"/>
</linearGradient>
<linearGradient id="paint32_linear_377_1269" x1="77.2916" y1="90.6297" x2="77.2916" y2="58.5028" gradientUnits="userSpaceOnUse">
<stop stop-color="#776D7E"/>
<stop offset="1" stop-color="#9D68C2"/>
</linearGradient>
<linearGradient id="paint33_linear_377_1269" x1="91.7345" y1="73.2882" x2="91.7345" y2="69.2705" gradientUnits="userSpaceOnUse">
<stop stop-color="#776D7E"/>
<stop offset="1" stop-color="#9D68C2"/>
</linearGradient>
<linearGradient id="paint34_linear_377_1269" x1="127.46" y1="112.001" x2="127.46" y2="101.299" gradientUnits="userSpaceOnUse">
<stop stop-color="#FF7C7C"/>
<stop offset="0.984" stop-color="#FF9E8B"/>
</linearGradient>
<linearGradient id="paint35_linear_377_1269" x1="121.187" y1="121.864" x2="121.187" y2="109.152" gradientUnits="userSpaceOnUse">
<stop stop-color="#CCEDFF"/>
<stop offset="1" stop-color="#9D68C2"/>
</linearGradient>
<linearGradient id="paint36_linear_377_1269" x1="108.467" y1="154.651" x2="108.467" y2="117.751" gradientUnits="userSpaceOnUse">
<stop stop-color="#9D68C2"/>
<stop offset="1" stop-color="#CCEDFF"/>
</linearGradient>
<linearGradient id="paint37_linear_377_1269" x1="116.908" y1="185.895" x2="116.908" y2="108.424" gradientUnits="userSpaceOnUse">
<stop stop-color="#9D68C2"/>
<stop offset="1" stop-color="#CCEDFF"/>
</linearGradient>
<linearGradient id="paint38_linear_377_1269" x1="167.189" y1="185.425" x2="167.189" y2="174.967" gradientUnits="userSpaceOnUse">
<stop stop-color="#CCEDFF"/>
<stop offset="1" stop-color="#9D68C2"/>
</linearGradient>
<linearGradient id="paint39_linear_377_1269" x1="39.7626" y1="210.958" x2="39.7626" y2="108.415" gradientUnits="userSpaceOnUse">
<stop stop-color="#755CBB"/>
<stop offset="1" stop-color="#CCEDFF"/>
</linearGradient>
<linearGradient id="paint40_linear_377_1269" x1="62.3407" y1="155.676" x2="101.314" y2="146.972" gradientUnits="userSpaceOnUse">
<stop stop-color="#9D68C2"/>
<stop offset="1" stop-color="#CCEDFF"/>
</linearGradient>
<linearGradient id="paint41_linear_377_1269" x1="31.0996" y1="186.249" x2="39.3197" y2="154.58" gradientUnits="userSpaceOnUse">
<stop stop-color="#755CBB"/>
<stop offset="1" stop-color="#CCEDFF"/>
</linearGradient>
<linearGradient id="paint42_linear_377_1269" x1="62.0314" y1="105.778" x2="62.0314" y2="90.522" gradientUnits="userSpaceOnUse">
<stop stop-color="#9D68C2"/>
<stop offset="1" stop-color="#CCEDFF"/>
</linearGradient>
<linearGradient id="paint43_linear_377_1269" x1="62.0606" y1="203.273" x2="62.0606" y2="157.23" gradientUnits="userSpaceOnUse">
<stop stop-color="#755CBB"/>
<stop offset="1" stop-color="#CCEDFF"/>
</linearGradient>
<linearGradient id="paint44_linear_377_1269" x1="150.486" y1="145.89" x2="195.419" y2="145.89" gradientUnits="userSpaceOnUse">
<stop stop-color="#FF51AA"/>
<stop offset="1" stop-color="#FE117E"/>
</linearGradient>
<linearGradient id="paint45_linear_377_1269" x1="121.248" y1="128.169" x2="248.822" y2="128.169" gradientUnits="userSpaceOnUse">
<stop/>
<stop offset="1" stop-color="#6A9BFF"/>
</linearGradient>
<linearGradient id="paint46_linear_377_1269" x1="175.54" y1="184.688" x2="175.54" y2="176.292" gradientUnits="userSpaceOnUse">
<stop stop-color="#FF7C7C"/>
<stop offset="0.984" stop-color="#FF9E8B"/>
</linearGradient>
<linearGradient id="paint47_linear_377_1269" x1="224.632" y1="136.63" x2="241.522" y2="136.63" gradientUnits="userSpaceOnUse">
<stop stop-color="#E5AFAE"/>
<stop offset="1" stop-color="#673E3E"/>
</linearGradient>
<linearGradient id="paint48_linear_377_1269" x1="82.2776" y1="38.9771" x2="82.2776" y2="20.3789" gradientUnits="userSpaceOnUse">
<stop stop-color="#1F77D1"/>
<stop offset="1" stop-color="#0686C9"/>
</linearGradient>
<linearGradient id="paint49_linear_377_1269" x1="83.2961" y1="36.131" x2="83.2961" y2="17.6319" gradientUnits="userSpaceOnUse">
<stop stop-color="#1F77D1"/>
<stop offset="1" stop-color="#0686C9"/>
</linearGradient>
<linearGradient id="paint50_linear_377_1269" x1="189.114" y1="77.3269" x2="185.417" y2="45.915" gradientUnits="userSpaceOnUse">
<stop stop-color="#1852A0"/>
<stop offset="1" stop-color="#067ED3"/>
</linearGradient>
<linearGradient id="paint51_linear_377_1269" x1="190.115" y1="75.6897" x2="186.663" y2="46.365" gradientUnits="userSpaceOnUse">
<stop stop-color="#313131"/>
<stop offset="1" stop-color="#365E8B"/>
</linearGradient>
<linearGradient id="paint52_linear_377_1269" x1="122.061" y1="67.6404" x2="122.061" y2="64.2406" gradientUnits="userSpaceOnUse">
<stop stop-color="#FF51AA"/>
<stop offset="1" stop-color="#FE117E"/>
</linearGradient>
<linearGradient id="paint53_linear_377_1269" x1="126.156" y1="61.7669" x2="128.835" y2="59.6972" gradientUnits="userSpaceOnUse">
<stop stop-color="#FF51AA"/>
<stop offset="1" stop-color="#FE117E"/>
</linearGradient>
<linearGradient id="paint54_linear_377_1269" x1="132.714" y1="60.9681" x2="136.19" y2="61.5347" gradientUnits="userSpaceOnUse">
<stop stop-color="#FF51AA"/>
<stop offset="1" stop-color="#FE117E"/>
</linearGradient>
<linearGradient id="paint55_linear_377_1269" x1="129.914" y1="34.902" x2="129.914" y2="0.0685071" gradientUnits="userSpaceOnUse">
<stop stop-color="#A242EA"/>
<stop offset="1" stop-color="#FE117E"/>
</linearGradient>
<linearGradient id="paint56_linear_377_1269" x1="147.982" y1="39.9395" x2="147.982" y2="5.87503e-06" gradientUnits="userSpaceOnUse">
<stop stop-color="#D93DE3"/>
<stop offset="1" stop-color="#FF6DBA"/>
</linearGradient>
<linearGradient id="paint57_linear_377_1269" x1="129.786" y1="37.0053" x2="151.933" y2="37.0053" gradientUnits="userSpaceOnUse">
<stop stop-color="#92117E"/>
<stop offset="1" stop-color="#B31A8F"/>
</linearGradient>
</defs>
</svg>
