<svg width="20" height="16" viewBox="0 0 20 16" fill="none" xmlns="http://www.w3.org/2000/svg">
<path d="M13.8513 7.68815C14.0596 7.79204 14.372 7.79205 14.6845 7.79205C16.5591 7.79205 18.1213 6.2336 18.1213 4.36347C18.1213 2.49334 16.5591 0.934902 14.6845 0.934902C14.5803 0.934902 14.5803 0.934902 14.4762 0.934902C15.1011 1.76607 15.4135 2.80503 15.4135 3.94789C15.4135 5.29854 14.8928 6.64919 13.8513 7.68815Z" fill="url(#paint0_linear_1130_1048)"/>
<path d="M16.0383 9.14285H15.3093C16.6632 10.1818 17.4964 11.8441 17.4964 13.7143C17.4964 14.1299 17.3922 14.5454 17.2881 14.961C18.3295 14.7532 18.9544 14.5454 19.371 14.3377C19.7876 14.1299 19.9959 13.6104 19.9959 13.0909C20.1 10.9091 18.2254 9.14285 16.0383 9.14285Z" fill="url(#paint1_linear_1130_1048)"/>
<path d="M5.31142 7.7922C5.62386 7.7922 5.83215 7.7922 6.14458 7.6883C5.20728 6.64934 4.58241 5.40259 4.58241 3.84415C4.58241 2.70129 4.89484 1.66233 5.51971 0.831159C5.51971 0.831159 5.41557 0.831159 5.31142 0.831159C3.43681 0.831159 1.87463 2.3896 1.87463 4.25973C1.87463 6.12986 3.33267 7.7922 5.31142 7.7922Z" fill="url(#paint2_linear_1130_1048)"/>
<path d="M4.58238 9.14285H3.95751C1.77047 9.14285 0 10.9091 0 13.0909C0 13.6104 0.20829 14.1299 0.62487 14.3377C1.04145 14.5454 1.66632 14.8571 2.70777 14.961C2.60363 14.5454 2.49948 14.1299 2.49948 13.7143C2.49948 11.948 3.2285 10.2857 4.58238 9.14285Z" fill="url(#paint3_linear_1130_1048)"/>
<path d="M7.60264 6.85708C8.22751 7.37656 9.06067 7.68825 9.99798 7.68825C10.9353 7.68825 11.7684 7.37656 12.3933 6.85708C13.3306 6.12981 13.8513 5.09085 13.8513 3.84409C13.8513 2.90903 13.5389 1.97396 12.914 1.35059C12.185 0.519419 11.1436 -6.10352e-05 9.99798 -6.10352e-05C8.85238 -6.10352e-05 7.70679 0.519419 7.08192 1.35059C6.45705 1.97396 6.04047 2.90903 6.04047 3.84409C6.04047 5.09085 6.66534 6.12981 7.60264 6.85708Z" fill="url(#paint4_linear_1130_1048)"/>
<path d="M12.0807 9.35059C11.8724 9.35059 11.6642 9.35059 11.4559 9.35059H8.33151C8.12322 9.35059 7.91493 9.35059 7.70664 9.35059C5.51959 9.66228 3.85327 11.5324 3.85327 13.7142C3.85327 14.3376 4.16571 14.8571 4.58229 15.0649C5.3113 15.4805 6.76933 15.9999 9.78954 15.9999C12.8097 15.9999 14.2678 15.4805 14.9968 15.0649C15.5175 14.7532 15.7258 14.2337 15.7258 13.7142C16.0382 11.5324 14.2678 9.66228 12.0807 9.35059Z" fill="url(#paint5_linear_1130_1048)"/>
<defs>
<linearGradient id="paint0_linear_1130_1048" x1="5.58793e-08" y1="7.99995" x2="20" y2="7.99995" gradientUnits="userSpaceOnUse">
<stop stop-color="#0439AD"/>
<stop offset="1" stop-color="#38028F"/>
</linearGradient>
<linearGradient id="paint1_linear_1130_1048" x1="5.58793e-08" y1="7.99995" x2="20" y2="7.99995" gradientUnits="userSpaceOnUse">
<stop stop-color="#0439AD"/>
<stop offset="1" stop-color="#38028F"/>
</linearGradient>
<linearGradient id="paint2_linear_1130_1048" x1="5.58793e-08" y1="7.99995" x2="20" y2="7.99995" gradientUnits="userSpaceOnUse">
<stop stop-color="#0439AD"/>
<stop offset="1" stop-color="#38028F"/>
</linearGradient>
<linearGradient id="paint3_linear_1130_1048" x1="5.58793e-08" y1="7.99995" x2="20" y2="7.99995" gradientUnits="userSpaceOnUse">
<stop stop-color="#0439AD"/>
<stop offset="1" stop-color="#38028F"/>
</linearGradient>
<linearGradient id="paint4_linear_1130_1048" x1="5.58793e-08" y1="7.99995" x2="20" y2="7.99995" gradientUnits="userSpaceOnUse">
<stop stop-color="#0439AD"/>
<stop offset="1" stop-color="#38028F"/>
</linearGradient>
<linearGradient id="paint5_linear_1130_1048" x1="5.58793e-08" y1="7.99995" x2="20" y2="7.99995" gradientUnits="userSpaceOnUse">
<stop stop-color="#0439AD"/>
<stop offset="1" stop-color="#38028F"/>
</linearGradient>
</defs>
</svg>
