<svg width="23" height="20" viewBox="0 0 23 20" fill="none" xmlns="http://www.w3.org/2000/svg">
<path fill-rule="evenodd" clip-rule="evenodd" d="M19.5031 18.6885L19.5039 18.6866L19.5241 18.6367L23 1.29169V1.23535C23 0.80319 22.8387 0.425914 22.4876 0.199613C22.1803 0.00153075 21.8271 -0.0125761 21.5794 0.00603258C21.3174 0.025713 21.0704 0.0904342 20.8993 0.144308C20.8114 0.172025 20.7377 0.198731 20.6851 0.218929C20.6586 0.229067 20.6372 0.237669 20.6216 0.244078L20.6063 0.250454L1.22637 7.77503L1.22104 7.77692C1.21057 7.78069 1.19673 7.7858 1.18001 7.79224C1.14668 7.80509 1.10131 7.82346 1.04802 7.84737C0.943373 7.89431 0.798792 7.96674 0.652163 8.06613C0.403126 8.23492 -0.0710787 8.63453 0.00899448 9.26805C0.0753191 9.7928 0.440787 10.1261 0.687176 10.2986C0.819255 10.3911 0.945611 10.4578 1.03814 10.5014C1.08502 10.5235 1.12485 10.5404 1.15451 10.5524C1.16938 10.5584 1.18181 10.5632 1.19143 10.5668L1.20374 10.5713L1.21162 10.5742L4.60227 11.704C4.59082 11.9146 4.61192 12.1293 4.66834 12.3411L6.36675 18.7178C6.56813 19.4739 7.25922 20.0006 8.04923 20C8.75736 19.9995 9.38539 19.5755 9.6522 18.9429L12.3039 16.1367L16.8579 19.5924L16.9227 19.6204C17.3365 19.7991 17.723 19.8557 18.0765 19.8079C18.4294 19.7602 18.7099 19.6137 18.9205 19.4469C19.1279 19.2827 19.27 19.0974 19.3593 18.9579C19.4047 18.8871 19.4385 18.8248 19.462 18.7779C19.4738 18.7544 19.4831 18.7344 19.4901 18.7189L19.4988 18.6989L19.5019 18.6915L19.5031 18.6885ZM6.3495 11.9024C6.3109 11.7575 6.3715 11.6045 6.49933 11.5241L18 4.29557C18 4.29557 18.6764 3.88912 18.6522 4.29557C18.6522 4.29557 18.7729 4.36735 18.4105 4.70203C18.0666 5.0199 10.2137 12.524 9.41906 13.2833C9.37319 13.3271 9.34582 13.3774 9.32965 13.4384L8.04791 18.2792L6.3495 11.9024Z" fill="white"/>
</svg>
