<svg width="24" height="24" viewBox="0 0 24 24" fill="none" xmlns="http://www.w3.org/2000/svg">
<path d="M9.49827 6.6765L9.49857 6.67716C9.65116 7.0172 9.90448 7.6341 10.1072 8.12771L10.1106 8.13609C10.1905 8.33062 10.2626 8.50632 10.3189 8.64158C10.3471 8.70926 10.3707 8.76548 10.389 8.80816C10.3982 8.82952 10.4056 8.84642 10.4112 8.85907C10.4149 8.86727 10.4171 8.872 10.4181 8.8741C10.4186 8.87521 10.4188 8.87559 10.4187 8.87536C10.5294 9.09612 10.6379 9.44366 10.444 9.84104L9.49827 6.6765ZM9.49827 6.6765C9.36143 6.37274 9.18824 6.14293 8.95113 6.0055C8.72374 5.87369 8.50055 5.86805 8.39152 5.86529C8.38827 5.86521 8.38512 5.86513 8.38207 5.86505C8.20104 5.85911 7.99296 5.85911 7.79538 5.85911H7.79C7.47356 5.85911 7.00835 5.97497 6.6212 6.39244C6.60671 6.40805 6.59026 6.42545 6.57006 6.4468L6.57006 6.4468C6.2314 6.80472 5.43737 7.64765 5.43737 9.23133C5.43737 10.0689 5.73777 10.865 6.03827 11.4588C6.34214 12.0593 6.66829 12.4957 6.75969 12.618L6.75974 12.6181L6.75978 12.6181L6.76568 12.626C6.76553 12.6258 6.76577 12.6262 6.76649 12.6272C6.76796 12.6293 6.77144 12.6342 6.77779 12.6435L6.81386 12.6966L7.18532 12.4453L6.81387 12.6966L6.81958 12.7051C7.2074 13.2784 9.14571 16.1437 12.12 17.3134C13.2837 17.7715 14.0553 17.9915 14.6155 18.0855C15.1941 18.1826 15.5357 18.1424 15.8118 18.109C15.8667 18.1024 15.9123 18.0969 15.9571 18.0927C16.3495 18.0559 16.8733 17.8271 17.3092 17.5464C17.7387 17.2697 18.2268 16.8512 18.4118 16.3406L18.413 16.3372M9.49827 6.6765L18.413 16.3372M18.5448 14.4906C18.453 14.3359 18.3206 14.2417 18.2257 14.1837C18.1345 14.128 18.0267 14.0764 17.9331 14.0315L17.9201 14.0253C17.8683 14.0005 17.816 13.9754 17.7605 13.9477L17.7604 13.9477C17.6081 13.8719 17.1618 13.6527 16.7186 13.4393C16.2898 13.2329 15.8238 13.0123 15.658 12.9504L15.6579 12.9504L15.6562 12.9497C15.5282 12.902 15.3014 12.8173 15.0567 12.8462C14.7585 12.8813 14.5439 13.0608 14.3922 13.2903C14.2139 13.553 13.6878 14.1685 13.4915 14.3965C13.4744 14.3898 13.4528 14.3803 13.4261 14.367C13.3649 14.3366 13.2876 14.3032 13.2137 14.2714L13.2041 14.2672L13.203 14.2667C12.7973 14.0917 12.0192 13.756 11.1178 12.9535L11.1169 12.9527C10.3105 12.2381 9.74742 11.348 9.56236 11.0336C9.57232 11.0234 9.58347 11.0123 9.59696 10.9989L9.59721 10.9986C9.69912 10.8971 9.81065 10.7623 9.90277 10.651L9.91217 10.6396C9.96954 10.5703 10.0221 10.5068 10.0715 10.4501L10.0716 10.4499C10.2483 10.2471 10.3285 10.0804 10.408 9.91542L10.412 9.90708L10.4121 9.90707L10.444 9.84112L18.5448 14.4906ZM18.5448 14.4906C18.6271 14.6293 18.6455 14.7925 18.6527 14.8838M18.5448 14.4906L18.6527 14.8838M18.413 16.3372C18.5514 15.9463 18.6224 15.58 18.6476 15.2853M18.413 16.3372L18.6476 15.2853M18.6476 15.2853C18.6602 15.1385 18.662 15.0019 18.6527 14.8838M18.6476 15.2853L18.6527 14.8838M6.7296 21.6185C6.6181 21.5581 6.4878 21.5423 6.3651 21.5744L1.04578 22.9638L2.46615 17.808C2.50175 17.6788 2.48397 17.5407 2.41678 17.4247C1.44307 15.7434 0.930946 13.837 0.931641 11.8968V11.8966C0.931641 5.79891 5.9227 0.833336 12.0492 0.833336C15.0278 0.833336 17.8155 1.9873 19.9148 4.07677C22.0135 6.16574 23.1669 8.94483 23.1669 11.9023C23.1669 17.9999 18.1758 22.9655 12.0493 22.9655H12.0435C10.1821 22.9655 8.35356 22.4981 6.7296 21.6185Z" fill="white" stroke="white" stroke-linejoin="round"/>
</svg>
